<svg width="100" height="93" viewBox="0 0 100 93" fill="none" xmlns="http://www.w3.org/2000/svg">
<path d="M50 1.45312C23.2422 1.45312 1.5625 21.6152 1.5625 46.5C1.5625 71.3848 23.2422 91.5469 50 91.5469C76.7578 91.5469 98.4375 71.3848 98.4375 46.5C98.4375 21.6152 76.7578 1.45312 50 1.45312ZM50 18.8906C59.4922 18.8906 67.1875 26.0473 67.1875 34.875C67.1875 43.7027 59.4922 50.8594 50 50.8594C40.5078 50.8594 32.8125 43.7027 32.8125 34.875C32.8125 26.0473 40.5078 18.8906 50 18.8906ZM50 81.375C38.5352 81.375 28.2617 76.5434 21.3867 68.9871C25.0586 62.557 32.2461 58.125 40.625 58.125C41.0938 58.125 41.5625 58.1977 42.0117 58.3248C44.5508 59.0877 47.207 59.5781 50 59.5781C52.793 59.5781 55.4688 59.0877 57.9883 58.3248C58.4375 58.1977 58.9062 58.125 59.375 58.125C67.7539 58.125 74.9414 62.557 78.6133 68.9871C71.7383 76.5434 61.4648 81.375 50 81.375Z" fill="black"/>
</svg>
