<svg width="32" height="32" viewBox="0 0 32 32" fill="none" xmlns="http://www.w3.org/2000/svg">
<path fill-rule="evenodd" clip-rule="evenodd" d="M22.2117 2.6665C26.6517 2.6665 29.9997 6.28917 29.9997 11.0932V20.2505C29.9997 22.7092 29.1303 24.9305 27.5503 26.5065C26.133 27.9185 24.2943 28.6665 22.233 28.6665H9.09567C7.03834 28.6665 5.20101 27.9198 3.78234 26.5065C2.20234 24.9305 1.33301 22.7092 1.33301 20.2505V11.0932C1.33301 6.28917 4.68101 2.6665 9.12101 2.6665H22.2117ZM22.2117 4.6665H9.12101C5.76767 4.6665 3.33301 7.36917 3.33301 11.0932V20.2505C3.33301 22.1745 3.99434 23.8932 5.19434 25.0892C6.22901 26.1225 7.57967 26.6665 9.09967 26.6665H22.2117C22.2143 26.6638 22.225 26.6665 22.233 26.6665C23.7543 26.6665 25.1037 26.1225 26.1383 25.0892C27.3397 23.8932 27.9997 22.1745 27.9997 20.2505V11.0932C27.9997 7.36917 25.565 4.6665 22.2117 4.6665ZM24.313 10.8382C24.661 11.2662 24.5957 11.8956 24.1677 12.2449L18.2423 17.0609C17.493 17.6556 16.597 17.9529 15.7023 17.9529C14.8103 17.9529 13.921 17.6582 13.177 17.0689L7.19701 12.2476C6.76634 11.9009 6.69967 11.2702 7.04501 10.8409C7.39301 10.4129 8.02234 10.3449 8.45167 10.6902L14.4263 15.5062C15.177 16.1009 16.2343 16.1009 16.9903 15.5009L22.905 10.6929C23.3343 10.3422 23.9637 10.4089 24.313 10.8382Z" fill="white"/>
</svg>
