<svg width="200" height="200" viewBox="0 0 200 200" fill="none" xmlns="http://www.w3.org/2000/svg">
<g clip-path="url(#clip0_118_978)">
<path d="M125.078 95.2344L105.664 134.062C103.32 138.789 96.5234 138.633 94.3749 133.828L72.1484 84.4922L60.4296 112.5H23.6718L94.9609 185.352C97.7343 188.203 102.227 188.203 105 185.352L176.328 112.5H133.711L125.078 95.2344ZM185.039 28.8672L184.102 27.8906C163.984 7.34375 131.055 7.34375 110.898 27.8906L99.9999 39.0625L89.1015 27.9297C68.9843 7.34375 36.0156 7.34375 15.8984 27.9297L14.9609 28.8672C-4.06255 48.3203 -4.88287 79.2969 12.1093 100H52.1093L66.1328 66.3281C68.2421 61.2891 75.3515 61.1719 77.6171 66.1719L100.352 116.68L119.492 78.4375C121.797 73.8281 128.359 73.8281 130.664 78.4375L141.445 100H187.891C204.883 79.2969 204.062 48.3203 185.039 28.8672Z" fill="black"/>
</g>
<defs>
<clipPath id="clip0_118_978">
<rect width="200" height="200" fill="white"/>
</clipPath>
</defs>
</svg>
