<svg width="783" height="904" viewBox="0 0 783 904" fill="none" xmlns="http://www.w3.org/2000/svg">
<path d="M261.412 123.458C260.543 125.059 259.48 126.543 258.25 127.874C258.009 127.05 257.775 126.284 257.542 125.485C258.893 124.939 260.189 124.26 261.412 123.458Z" fill="#EFF0F1"/>
<path d="M5.30199 104.052C5.30199 110.171 7.67546 116.04 11.9004 120.367C16.1253 124.694 21.8555 127.124 27.8305 127.124H228.174L239.325 134.714H21.3294C18.5294 134.717 15.7563 134.155 13.1687 133.06C10.5809 131.965 8.22946 130.358 6.2485 128.331C4.26753 126.305 2.69598 123.898 1.62378 121.249C0.551559 118.6 -0.000335693 115.761 -0.000335693 112.893V60.5019C1.52588e-05 57.6332 0.55394 54.7929 1.62956 52.1443C2.7052 49.4956 4.28139 47.0907 6.26746 45.0679C5.64291 47.2068 5.32576 49.4275 5.32605 51.6601L5.30199 104.052Z" fill="#EFF0F1"/>
<path d="M696.253 754.918C696.253 754.868 696.317 754.811 696.35 754.769C705.594 746.719 714.855 739.352 723.995 732.636C724.258 732.746 724.526 732.84 724.8 732.916C725.23 733.024 725.669 733.088 726.111 733.106C716.947 739.805 707.606 747.164 698.305 755.214C697.075 755.528 695.888 755.998 694.773 756.615C695.306 756.088 695.801 755.52 696.253 754.918Z" fill="#1A1A1A"/>
<path d="M692.262 758.378C692.423 758.312 692.584 758.23 692.745 758.147C691.83 759.02 691.224 760.18 691.023 761.444C691.023 761.526 691.023 761.617 691.023 761.699C686.63 765.687 682.264 769.838 677.925 774.15C677.329 773.985 676.718 773.82 676.114 773.672C681.43 768.332 686.813 763.234 692.262 758.378Z" fill="#1A1A1A"/>
<path d="M737.375 723.151C748.551 715.537 759.309 708.92 769.261 703.25C769.966 703.474 770.697 703.599 771.434 703.621C771.611 703.621 771.788 703.621 771.965 703.621C761.248 709.661 749.541 716.806 737.367 725.153C737.038 725.203 736.708 725.26 736.386 725.326C736.732 724.626 737.07 723.909 737.375 723.151Z" fill="#1A1A1A"/>
<path d="M694.78 756.615C694.038 757.03 693.353 757.545 692.745 758.148C692.584 758.23 692.423 758.312 692.262 758.378C691.637 758.647 690.969 758.798 690.291 758.823C688.722 758.82 687.217 758.187 686.099 757.06C685.401 756.401 684.785 755.657 684.264 754.843C683.667 753.876 683.155 752.856 682.736 751.794C682.266 750.562 681.889 749.295 681.609 748.004C681.315 746.529 681.126 745.033 681.046 743.529C680.866 740.097 681.186 736.656 681.996 733.32C682.743 730.135 683.893 727.063 685.415 724.181C686.615 721.891 688.103 719.772 689.84 717.878C692.922 714.581 696.188 712.933 699.037 713.823C701.885 714.713 703.695 718.009 704.259 722.673C704.54 725.217 704.54 727.785 704.259 730.329C703.966 733.074 703.496 735.797 702.85 738.478C702.25 741.003 701.525 743.495 700.678 745.944C700.236 747.097 699.874 748.235 699.359 749.289C698.931 750.326 698.445 751.336 697.902 752.314C697.452 753.176 696.938 754.003 696.365 754.786C696.365 754.786 696.301 754.885 696.269 754.934C695.814 755.531 695.316 756.093 694.78 756.615Z" fill="#EC744A"/>
<path d="M692.744 758.147C693.352 757.545 694.037 757.029 694.78 756.614C695.895 755.998 697.082 755.527 698.312 755.214L698.972 755.049C701.581 754.506 704.254 754.362 706.905 754.62C713.231 755.233 719.297 757.503 724.518 761.213C726.704 762.763 728.651 764.641 730.295 766.783C733.159 770.631 733.891 774.38 732.338 776.935C730.785 779.489 727.318 780.519 723.126 780.47C718.2 780.245 713.343 779.195 708.748 777.363C704.082 775.729 699.709 773.324 695.802 770.244C692.656 767.59 690.685 764.64 690.974 761.707C690.974 761.625 690.974 761.534 690.974 761.452C691.186 760.178 691.81 759.015 692.744 758.147Z" fill="#EC744A"/>
<path d="M723.963 732.636C721.501 731.655 719.651 729.29 718.548 726.192C717.336 722.196 717.074 717.961 717.783 713.84C718.493 709.719 720.154 705.832 722.627 702.501C724.921 699.7 727.777 698.052 730.722 698.381C733.666 698.711 736.137 700.952 737.665 704.454C739.32 708.633 739.748 713.215 738.896 717.639C738.572 719.522 738.051 721.365 737.343 723.135C737.038 723.893 736.7 724.61 736.346 725.294C735.353 725.495 734.381 725.79 733.441 726.176C730.078 727.585 727.89 730.04 727.471 733.007C727.013 733.079 726.55 733.107 726.087 733.089C725.645 733.071 725.206 733.008 724.776 732.9C724.5 732.829 724.228 732.741 723.963 732.636Z" fill="#EC744A"/>
<path d="M733.473 726.192C734.413 725.807 735.385 725.511 736.378 725.31C736.7 725.244 737.03 725.187 737.359 725.137C740.276 724.728 743.244 724.916 746.089 725.689C750.285 726.705 754.06 729.057 756.871 732.405C759.164 735.339 759.904 738.602 758.826 741.42C757.748 744.238 755.117 746.125 751.866 747.065C748.191 747.953 744.36 747.911 740.705 746.94C737.05 745.969 733.681 744.1 730.891 741.494C728.477 739.022 727.093 736.105 727.487 733.097C727.483 733.073 727.483 733.048 727.487 733.023C727.922 730.09 730.11 727.618 733.473 726.192Z" fill="#EC744A"/>
<path d="M634.798 713.526C634.955 713.477 635.108 713.416 635.256 713.345C637.34 712.389 638.523 709.695 638.636 705.879C645.692 692.003 653.183 678.308 661.164 664.909C662.672 664.359 663.959 663.313 664.825 661.934C657.399 674.22 650.391 686.778 643.745 699.501L643.52 699.699C642.395 700.735 641.439 701.948 640.687 703.292C640.116 704.368 639.805 705.569 639.778 706.794C639.778 706.926 639.778 707.041 639.778 707.173C639.328 708.055 638.877 708.928 638.435 709.81C633.084 720.432 627.975 731.301 624.757 742.656L623.389 741.543C626.205 731.853 630.348 722.566 634.798 713.526Z" fill="#1A1A1A"/>
<path d="M699.97 607.705C707.249 598.366 714.86 589.332 722.804 580.603C722.989 580.603 723.174 580.652 723.359 580.669C723.948 580.699 724.538 580.646 725.113 580.512C716.429 589.928 708.155 599.739 700.292 609.946C700.066 610.045 699.825 610.127 699.608 610.235C699.761 609.419 699.881 608.578 699.97 607.705Z" fill="#1A1A1A"/>
<path d="M757.394 547.098C757.744 547.521 758.135 547.908 758.561 548.252C749.587 555.888 741.004 563.938 732.814 572.404C733.307 571.242 733.723 570.047 734.061 568.828C741.522 561.263 749.3 554.02 757.394 547.098Z" fill="#1A1A1A"/>
<path d="M667.368 655.927C667.513 655.325 667.649 654.691 667.762 654.04C674.885 642.608 682.395 631.456 690.291 620.584C690.553 620.677 690.822 620.749 691.095 620.799C691.118 621.076 691.159 621.351 691.216 621.623C691.216 621.722 691.288 621.821 691.312 621.919C684.141 631.775 677.297 641.894 670.779 652.277H670.731C669.414 653.287 668.276 654.522 667.368 655.927Z" fill="#1A1A1A"/>
<path d="M635.257 713.345C635.108 713.416 634.955 713.477 634.798 713.526C632.135 714.4 628.659 712.702 624.974 709.406C621.072 705.921 616.872 700.737 612.905 694.574C608.938 688.41 605.945 682.444 604.352 677.393C602.759 672.341 602.663 668.23 604.851 666.161C607.04 664.093 611.151 664.612 616.003 667.463C618.747 669.122 621.279 671.123 623.542 673.421C628.995 678.939 633.262 685.563 636.069 692.868C637.255 695.9 638.066 699.073 638.483 702.311C638.621 703.487 638.675 704.671 638.644 705.855C638.523 709.695 637.34 712.389 635.257 713.345Z" fill="#EC744A"/>
<path d="M640.679 703.292C641.431 701.948 642.387 700.735 643.511 699.699L643.737 699.501C644.825 698.521 646.003 697.649 647.253 696.897C647.591 696.691 647.904 696.51 648.242 696.321L649.135 695.81C649.739 695.48 650.374 695.151 651.034 694.846C653.86 693.547 656.833 692.615 659.885 692.069C666.378 690.89 672.485 691.533 676.781 693.255C681.078 694.978 683.676 697.738 683.709 700.762C683.741 703.786 681.343 706.53 677.698 708.755C673.313 711.23 668.54 712.903 663.594 713.699C660.969 714.185 658.311 714.46 655.645 714.523C655.009 714.523 654.397 714.523 653.794 714.523H652.893L652.153 714.441C651.333 714.335 650.525 714.15 649.739 713.889C649.115 713.657 648.508 713.382 647.92 713.065C647.273 712.821 646.609 712.625 645.933 712.48C644.556 712.295 643.221 711.862 641.991 711.203C641.326 710.773 640.775 710.183 640.384 709.485C639.992 708.787 639.774 708.002 639.746 707.198C639.746 707.066 639.746 706.951 639.746 706.819C639.776 705.583 640.096 704.374 640.679 703.292Z" fill="#EC744A"/>
<path d="M661.156 664.909C660.767 665.035 660.365 665.112 659.958 665.139C656.997 665.321 654.189 662.898 651.855 659.075C646.737 649.621 644.575 638.786 645.66 628.034C646.336 623.584 647.985 620.23 650.785 619.2C653.585 618.17 656.997 619.777 660.143 623.444C663.289 627.111 666.08 632.862 667.44 639.644C668.422 644.383 668.531 649.268 667.762 654.048C667.649 654.699 667.513 655.334 667.368 655.935C667.199 656.191 667.03 656.446 666.893 656.701C666.236 657.878 665.82 659.179 665.67 660.525V660.583C665.427 661.048 665.158 661.499 664.866 661.934C663.987 663.321 662.682 664.368 661.156 664.909Z" fill="#EC744A"/>
<path d="M666.893 656.702C667.03 656.446 667.199 656.191 667.368 655.935C668.281 654.529 669.424 653.294 670.747 652.285H670.795C672.601 650.928 674.636 649.922 676.797 649.318C678.982 648.712 681.256 648.522 683.508 648.758C685.448 648.964 687.325 649.581 689.019 650.571C692.093 652.417 693.646 655.293 693.493 658.3C693.34 661.308 691.755 663.986 689.767 666.079C687.752 668.199 685.218 669.727 682.431 670.503C679.643 671.28 676.703 671.278 673.917 670.496C671.071 669.846 668.557 668.148 666.853 665.725C665.881 664.203 665.462 662.38 665.67 660.575C665.813 659.211 666.23 657.893 666.893 656.702Z" fill="#EC744A"/>
<path d="M695.287 612.863C692.367 615.22 690.854 618.088 691.112 620.807C690.838 620.757 690.569 620.685 690.307 620.593C689.313 620.238 688.401 619.677 687.628 618.945C686.935 618.297 686.3 617.588 685.729 616.827C685.431 616.423 685.133 616.003 684.844 615.533C684.554 615.063 684.24 614.594 683.959 614.091C682.698 611.838 681.621 609.481 680.74 607.046C678.666 601.327 677.217 595.391 676.42 589.346C676.07 586.777 675.928 584.184 675.993 581.591C675.993 581.004 676.033 580.435 676.114 579.886C676.154 579.35 676.219 578.823 676.299 578.32C676.452 577.372 676.686 576.44 676.999 575.535C677.464 573.986 678.462 572.663 679.807 571.81C680.519 571.442 681.3 571.236 682.098 571.206C682.895 571.176 683.689 571.323 684.425 571.637C685.393 571.986 686.309 572.471 687.145 573.079C687.604 573.401 688.078 573.763 688.553 574.167C689.028 574.571 689.47 574.991 689.937 575.494C692.008 577.699 693.761 580.197 695.143 582.91C698.434 589.334 700.177 596.471 700.228 603.725C700.219 605.066 700.138 606.406 699.986 607.738C699.898 608.611 699.777 609.452 699.624 610.268C698.078 610.942 696.621 611.815 695.287 612.863Z" fill="#EC744A"/>
<path d="M691.112 620.807C690.854 618.088 692.367 615.22 695.288 612.863C696.614 611.804 698.066 610.921 699.608 610.235C699.826 610.128 700.067 610.045 700.292 609.946C703.039 608.809 705.945 608.125 708.901 607.919C714.534 607.524 719.852 608.743 723.545 611.215C724.421 611.765 725.231 612.417 725.959 613.16C726.599 613.798 727.141 614.532 727.568 615.336C728.335 616.7 728.551 618.317 728.171 619.843C727.755 621.312 726.977 622.645 725.91 623.716C725.368 624.293 724.778 624.823 724.148 625.298C723.48 625.803 722.778 626.26 722.048 626.666C714.511 630.406 705.839 630.953 697.911 628.19C694.596 626.839 692.134 624.738 691.353 621.928C691.353 621.829 691.281 621.73 691.257 621.631C691.191 621.36 691.143 621.085 691.112 620.807Z" fill="#EC744A"/>
<path d="M723.36 580.669C723.175 580.669 722.989 580.669 722.804 580.603C717.172 579.721 713.198 570.797 713.817 560.208C714.461 549.274 719.771 540.704 725.685 541.066C731.599 541.429 735.863 550.584 735.227 561.527C735.087 563.997 734.688 566.445 734.036 568.828C733.699 570.047 733.282 571.242 732.789 572.404L732.476 573.104C731.973 573.771 731.574 574.513 731.293 575.305C729.571 578.09 727.431 579.96 725.122 580.512C724.544 580.647 723.951 580.7 723.36 580.669Z" fill="#EC744A"/>
<path d="M735.396 570.36C737.243 569.164 739.288 568.326 741.431 567.888C746.475 566.855 751.711 567.52 756.356 569.783C758.325 570.735 760.107 572.051 761.61 573.665C764.289 576.615 765.102 579.96 764.024 582.729C762.946 585.498 760.242 587.385 757.112 588.456C753.657 589.519 750.025 589.84 746.443 589.397C742.861 588.955 739.407 587.759 736.298 585.885C733.514 584.072 731.357 581.641 730.939 578.625C730.789 577.514 730.907 576.382 731.285 575.329C731.566 574.538 731.965 573.796 732.468 573.129C733.28 572.04 734.271 571.103 735.396 570.36Z" fill="#EC744A"/>
<path d="M757.394 547.098C756.44 545.917 755.817 544.493 755.591 542.978C755.329 541.225 755.481 539.434 756.034 537.754C756.667 535.835 757.699 534.079 759.059 532.608C760.419 531.137 762.074 529.986 763.911 529.233C765.517 528.572 767.256 528.317 768.98 528.492C770.453 528.632 771.863 529.176 773.06 530.066C774.258 530.956 775.2 532.16 775.787 533.551C776.828 536.144 777.2 538.968 776.865 541.75C776.591 544.222 775.972 546.266 774.628 547.7C773.284 549.134 771.41 549.892 768.996 550.312C766.303 550.808 763.531 550.581 760.95 549.653C760.107 549.317 759.32 548.85 758.617 548.268C758.171 547.922 757.761 547.53 757.394 547.098Z" fill="#EC744A"/>
<path d="M763.159 708.447C762.206 707.266 761.583 705.842 761.357 704.327C761.095 702.574 761.247 700.783 761.799 699.102C762.433 697.183 763.465 695.428 764.825 693.957C766.185 692.486 767.84 691.334 769.676 690.582C771.283 689.92 773.022 689.666 774.745 689.84C776.219 689.98 777.628 690.524 778.826 691.414C780.023 692.305 780.965 693.508 781.552 694.9C782.594 697.492 782.965 700.316 782.63 703.099C782.357 705.571 781.737 707.614 780.394 709.048C779.05 710.482 777.175 711.24 774.761 711.66C772.069 712.156 769.297 711.929 766.715 711.001C765.873 710.666 765.085 710.199 764.382 709.617C763.936 709.271 763.526 708.879 763.159 708.447Z" fill="#EC744A"/>
<path d="M449.01 239.258C448.857 239.207 448.696 239.189 448.537 239.203C448.377 239.217 448.221 239.264 448.079 239.341C447.938 239.418 447.812 239.523 447.711 239.65C447.61 239.778 447.534 239.924 447.489 240.082L436.861 273.529C436.716 273.447 436.563 273.356 436.41 273.282L436.297 273.224C436.37 269.104 436.418 264.605 436.418 260.04C436.418 253.679 436.322 247.202 436.032 241.623C435.71 235.319 435.549 220.083 435.412 202.572C435.276 185.062 435.155 165.228 434.881 149.637C434.825 146.506 434.769 143.547 434.696 140.812C436.117 142.097 437.713 143.163 439.435 143.976C442.846 145.519 446.545 146.278 450.273 146.201C462.004 146.201 470.171 143.276 475.698 139.806C475.352 145.294 474.934 151.878 474.475 159.13C473.156 179.73 471.45 205.58 469.905 226.857C469.498 232.493 469.17 237.734 468.924 242.579C468.779 243.634 468.634 244.705 468.481 245.801L449.01 239.258Z" fill="#2A6049"/>
<path d="M499.096 870.627L489.626 871.937C485.122 872.654 480.712 873.89 476.479 875.62C464.844 867.001 445.405 861.348 423.376 861.348C416.943 861.337 410.52 861.835 404.162 862.84C404.21 860.557 404.243 858.398 404.267 856.429C406.147 855.624 407.759 854.279 408.909 852.556C422.164 845.352 436.728 841.029 451.689 839.858C448.419 811.645 456.042 783.24 472.931 760.702C475.706 778.649 478.313 794.833 480.63 808.66C484.203 829.936 487.067 845.634 488.926 853.709C489.417 855.868 489.827 857.475 490.173 858.555C490.312 859.024 490.498 859.477 490.728 859.906C491.282 860.782 492.029 861.513 492.908 862.04C493.86 862.616 494.887 863.049 495.958 863.326C497.042 863.611 498.144 863.815 499.257 863.936L499.9 870.528L499.096 870.627Z" fill="#2A6049"/>
<path d="M533.975 900.407C534.296 897.292 534.417 893.089 534.417 888.5C534.417 883.555 534.272 878.117 534.095 873.181C533.894 867.701 533.637 862.815 533.468 859.799C535.978 859.197 537.491 858.777 537.491 858.777C537.751 858.705 537.981 858.546 538.143 858.325C538.304 858.104 538.389 857.834 538.384 857.557C538.384 857.557 538.384 856.874 538.343 855.563C538.303 854.253 538.279 852.317 538.223 849.795C538.126 844.793 537.981 837.509 537.812 828.42C537.466 810.234 537.008 784.796 536.557 755.798C536.38 744.41 536.195 732.462 536.026 720.201C551.227 717.035 566.92 717.304 582.009 720.991C597.098 724.677 611.22 731.691 623.389 741.543L624.74 742.655C634.133 750.524 642.149 759.973 648.444 770.598C649.337 770.598 650.222 770.598 651.115 770.598C659.522 770.597 667.897 771.643 676.057 773.713C676.661 773.861 677.272 774.026 677.868 774.191C704.364 781.473 726.953 799.233 740.668 823.568C754.383 847.902 758.101 876.818 751.005 903.958H533.363C533.66 902.793 533.865 901.606 533.975 900.407Z" fill="#2A6049"/>
<path d="M402.593 896.287C403.156 890.799 403.534 883.507 403.792 876.156C403.952 871.6 404.065 867.018 404.137 862.84C410.495 861.836 416.919 861.337 423.351 861.349C445.373 861.349 464.812 867.001 476.454 875.621C468.728 878.727 461.923 883.839 456.709 890.453C453.501 894.485 451.019 899.069 449.38 903.992H401.321C401.41 903.695 401.498 903.382 401.579 903.044C402.057 900.816 402.395 898.559 402.593 896.287Z" fill="#2A6049"/>
<path d="M451.923 903.959C452.148 903.299 452.47 902.451 452.905 901.487C454.393 898.091 456.302 894.906 458.585 892.01C464.217 884.874 473.76 877.071 489.964 874.426L499.104 873.157C499.881 873.487 500.69 873.731 501.518 873.882H501.558C507.917 874.836 514.33 875.356 520.756 875.439C523.175 875.439 525.605 875.329 528.045 875.11C529.268 875.002 530.499 874.854 531.738 874.681C531.891 879.221 532.012 884.067 532.012 888.541C532.08 892.809 531.889 897.078 531.441 901.322C531.353 902.093 531.197 902.854 530.974 903.596C530.93 903.735 530.876 903.869 530.813 904H451.963L451.923 903.959Z" fill="black"/>
<path d="M476.446 875.62C480.679 873.89 485.089 872.654 489.593 871.937L499.063 870.627C498.803 870.664 498.562 870.788 498.377 870.979C498.191 871.169 498.072 871.417 498.036 871.683C498.001 871.95 498.051 872.221 498.18 872.456C498.309 872.691 498.509 872.876 498.749 872.983L499.071 873.115L489.931 874.384C473.727 877.029 464.184 884.833 458.552 891.969C456.27 894.865 454.36 898.05 452.872 901.445C452.437 902.451 452.115 903.299 451.89 903.917H449.34C450.979 898.994 453.461 894.41 456.669 890.379C461.901 883.787 468.716 878.701 476.446 875.62Z" fill="black"/>
<path d="M520.748 875.398C523.167 875.398 525.597 875.288 528.037 875.068C525.597 875.293 523.167 875.403 520.748 875.398Z" fill="black"/>
<path d="M531.432 901.281C531.881 897.037 532.071 892.768 532.003 888.5C532.003 884.026 531.883 879.181 531.73 874.64C532.18 874.574 532.623 874.525 533.073 874.451C533.365 874.403 533.63 874.247 533.818 874.014C534.006 873.78 534.105 873.484 534.095 873.182C534.272 878.126 534.417 883.531 534.417 888.5C534.417 893.09 534.296 897.293 533.974 900.407C533.865 901.606 533.66 902.794 533.363 903.959H530.804C530.867 903.828 530.921 903.694 530.965 903.555C531.188 902.813 531.344 902.052 531.432 901.281Z" fill="black"/>
<path d="M531.666 872.159C528.057 872.676 524.416 872.932 520.772 872.926C514.632 872.853 508.504 872.363 502.427 871.459L501.711 864.142C502.419 864.142 503.143 864.191 503.892 864.191C510.859 864.191 519.243 862.831 525.913 861.48C527.812 861.093 529.566 860.714 531.111 860.359C531.111 860.763 531.151 861.183 531.175 861.637C531.304 864.405 531.481 868.081 531.666 872.159Z" fill="#EFF0F1"/>
<path d="M533.074 874.45C532.623 874.525 532.181 874.574 531.73 874.64C530.491 874.813 529.26 874.961 528.037 875.068C525.596 875.288 523.167 875.398 520.747 875.398C514.322 875.315 507.908 874.795 501.55 873.841H501.51C500.682 873.689 499.872 873.446 499.096 873.115L498.774 872.984C498.533 872.876 498.333 872.691 498.205 872.456C498.076 872.222 498.025 871.95 498.061 871.684C498.096 871.417 498.216 871.17 498.401 870.979C498.587 870.788 498.828 870.665 499.088 870.627L499.892 870.52L499.249 863.928C500.053 864.018 500.858 864.092 501.663 864.134L502.379 871.451C508.455 872.355 514.583 872.845 520.723 872.918C524.368 872.924 528.008 872.668 531.617 872.151C531.457 868.031 531.279 864.373 531.127 861.629C531.127 861.175 531.086 860.755 531.062 860.351L533.476 859.791C533.645 862.807 533.902 867.693 534.104 873.173C534.115 873.478 534.016 873.777 533.826 874.013C533.636 874.248 533.369 874.404 533.074 874.45Z" fill="black"/>
<path d="M401.41 875.118C400.606 875.34 399.737 875.522 398.884 875.662C398.232 875.777 397.58 875.86 396.921 875.925C395.834 876.033 394.748 876.107 393.646 876.107C385.898 876.107 377.787 873.569 370.514 870.709L373.161 853.067C374.633 853.603 376.709 854.328 379.131 855.045C383.959 856.487 390.218 857.937 395.923 857.945C397.916 857.969 399.905 857.742 401.845 857.27C401.748 862.461 401.619 868.798 401.41 875.118Z" fill="#EFF0F1"/>
<path d="M403.792 876.157C403.798 875.961 403.759 875.767 403.678 875.59C403.597 875.413 403.476 875.258 403.326 875.137C403.175 875.017 402.999 874.935 402.812 874.897C402.625 874.859 402.431 874.867 402.247 874.921C401.974 875.003 401.692 875.061 401.443 875.135C401.652 868.798 401.781 862.461 401.845 857.27C402.534 857.095 403.211 856.875 403.872 856.611L404.274 856.429C404.274 858.399 404.218 860.549 404.17 862.84C404.065 867.018 403.953 871.6 403.792 876.157Z" fill="black"/>
<path d="M373.162 853.067L370.547 870.726C377.788 873.585 385.931 876.123 393.679 876.123C385.633 876.123 377.144 873.371 369.646 870.355C369.351 870.236 369.023 870.236 368.728 870.355L368.141 870.437L370.852 852.136C371.013 852.251 371.842 852.589 373.162 853.067Z" fill="black"/>
<path d="M319.881 903.959C320.114 903.3 320.428 902.451 320.862 901.487C322.354 898.093 324.263 894.909 326.543 892.011C332.175 884.875 341.717 877.071 357.922 874.426L367.891 873.042L369.122 872.877C376.637 875.852 385.214 878.645 393.638 878.645C396.22 878.655 398.796 878.362 401.313 877.771C401 886.069 400.509 894.12 399.809 899.196C399.648 900.589 399.379 901.967 399.004 903.316C398.938 903.538 398.851 903.753 398.747 903.959H319.897H319.881Z" fill="black"/>
<path d="M369.613 870.372C377.112 873.371 385.576 876.14 393.646 876.14C394.749 876.14 395.835 876.066 396.921 875.959C397.581 875.893 398.233 875.81 398.884 875.695C399.737 875.555 400.574 875.374 401.411 875.151C401.692 875.077 401.974 875.019 402.215 874.937C402.399 874.884 402.592 874.876 402.78 874.913C402.967 874.951 403.143 875.033 403.294 875.154C403.444 875.274 403.565 875.429 403.646 875.606C403.727 875.783 403.766 875.978 403.76 876.173C403.503 883.523 403.124 890.816 402.561 896.304C402.363 898.565 402.024 900.811 401.548 903.028C401.467 903.366 401.379 903.679 401.29 903.976H398.699C398.804 903.77 398.89 903.555 398.957 903.333C399.331 901.984 399.6 900.606 399.761 899.213C400.477 894.104 400.952 886.028 401.266 877.788C398.748 878.379 396.173 878.672 393.59 878.662C385.142 878.662 376.589 875.876 369.074 872.893L367.843 873.058L357.874 874.443C341.662 877.088 332.127 884.891 326.495 892.027C324.233 894.923 322.341 898.102 320.863 901.487C320.429 902.492 320.115 903.341 319.882 903.959H317.331C318.97 899.036 321.452 894.452 324.661 890.42C329.723 884.004 336.289 879.004 343.746 875.885C348.177 874.008 352.813 872.683 357.552 871.937L368.077 870.479L368.664 870.397C368.965 870.26 369.306 870.251 369.613 870.372Z" fill="black"/>
<path d="M442.3 522.822H442.211C441.893 522.86 441.603 523.025 441.404 523.281C441.205 523.538 441.113 523.865 441.149 524.19C441.439 526.772 441.731 529.357 442.026 531.944C439.838 557.102 437.287 585.926 434.568 615.748C427.536 692.868 419.337 776.664 413.061 820.749C411.275 833.332 409.633 842.701 408.233 847.637C407.983 848.603 407.66 849.548 407.268 850.463C406.336 852.257 404.784 853.629 402.915 854.312C400.657 855.146 398.266 855.54 395.867 855.473C390.894 855.473 385.23 854.254 380.644 852.935C376.702 851.806 373.556 850.62 372.284 850.117V850.076C372.204 849.598 372.083 848.865 371.922 847.884C371.608 845.915 371.118 842.94 370.546 838.886C369.356 830.786 367.634 818.392 365.518 801.269C361.286 767.006 355.493 713.79 349.233 637.947C348.627 630.663 348.09 623.37 347.624 616.069C350.149 617.732 352.766 619.245 355.46 620.601C370.957 628.43 393.807 634.214 424.897 634.61C425.198 634.613 425.49 634.501 425.715 634.295C425.94 634.089 426.081 633.805 426.111 633.497C432.596 565.606 434.761 486.573 434.761 411.332C434.761 390.813 434.6 370.575 434.318 350.922L436.024 351.491L442.3 522.822Z" fill="black"/>
<path d="M347.647 616.069C348.114 623.359 348.65 630.651 349.256 637.947C355.516 713.757 361.325 767.006 365.541 801.269C367.658 818.392 369.379 830.785 370.57 838.885C371.166 842.94 371.632 845.914 371.946 847.884C372.107 848.864 372.228 849.598 372.308 850.076V850.117C373.579 850.62 376.725 851.765 380.668 852.935C385.254 854.253 390.918 855.473 395.891 855.473C398.29 855.54 400.681 855.146 402.939 854.311C404.807 853.629 406.36 852.256 407.292 850.463C407.684 849.548 408.007 848.603 408.257 847.637C409.633 842.692 411.274 833.331 413.085 820.749C419.36 776.663 427.567 692.868 434.591 615.747C437.311 585.926 439.861 557.101 442.05 531.944C442.501 535.924 442.967 539.912 443.426 543.9C440.417 578.312 436.844 618.343 433.111 657.946C428.774 703.976 424.22 749.413 420.085 784.846C418.025 802.538 416.062 817.708 414.284 829.187C413.39 834.955 412.546 839.751 411.757 843.508C411.36 845.387 410.977 846.999 410.607 848.345C410.315 849.45 409.941 850.53 409.488 851.575C409.32 851.913 409.132 852.241 408.925 852.556C407.775 854.279 406.163 855.624 404.282 856.429L403.88 856.61C403.219 856.874 402.542 857.094 401.853 857.269C399.913 857.742 397.924 857.969 395.931 857.945C390.226 857.945 383.991 856.487 379.139 855.045C376.725 854.328 374.641 853.602 373.169 853.067C371.882 852.589 371.053 852.243 370.86 852.177H370.82C370.63 852.101 370.463 851.975 370.335 851.814C370.207 851.652 370.122 851.459 370.087 851.254C370.087 851.205 359.402 789.922 346.883 638.186C346.234 630.231 345.657 622.265 345.153 614.289C345.925 614.899 346.762 615.484 347.647 616.069Z" fill="black"/>
<path d="M521.6 636.884C525.519 636.603 529.236 636.241 532.671 635.779C533.516 735.215 535.745 845.214 535.986 856.618L533.637 857.212C531.593 857.714 528.713 858.382 525.422 859.049C518.832 860.384 510.537 861.711 503.867 861.711C501.946 861.733 500.027 861.59 498.13 861.282C496.734 861.078 495.385 860.617 494.148 859.923C493.591 859.598 493.117 859.143 492.764 858.596C492.641 858.329 492.536 858.054 492.45 857.772C492.297 857.294 492.112 856.635 491.903 855.827C491.492 854.179 490.986 851.963 490.406 849.161C489.24 843.558 487.759 835.705 486.045 825.973C482.61 806.501 478.209 779.506 473.373 747.814C468.344 714.779 462.841 676.626 457.482 636.57C466.389 637.04 480.816 637.65 495.725 637.65C504.495 637.666 513.458 637.46 521.6 636.884Z" fill="black"/>
<path d="M443.546 523.91C443.51 523.601 443.362 523.318 443.131 523.116C442.899 522.915 442.603 522.81 442.299 522.822L436.048 351.425L451.206 356.493C449.5 370.732 448.116 385.383 447.304 400.166C445.22 437.972 444.528 476.652 444.528 511.41C444.528 518.884 444.528 526.176 444.616 533.246C444.246 530.142 443.89 527.03 443.546 523.91Z" fill="black"/>
<path d="M537.844 828.437C538.013 837.501 538.158 844.811 538.255 849.812C538.311 852.284 538.351 854.254 538.376 855.581C538.4 856.907 538.416 857.566 538.416 857.575C538.421 857.851 538.337 858.121 538.175 858.342C538.013 858.563 537.783 858.722 537.523 858.794C537.523 858.794 535.978 859.214 533.5 859.816L531.086 860.376C529.541 860.731 527.787 861.11 525.888 861.497C519.218 862.848 510.834 864.208 503.867 864.208C503.118 864.208 502.394 864.208 501.686 864.159C500.833 864.159 500.029 864.043 499.272 863.953C498.16 863.832 497.057 863.628 495.974 863.343C494.902 863.066 493.875 862.633 492.924 862.057C492.044 861.53 491.298 860.799 490.744 859.923C490.514 859.494 490.328 859.041 490.189 858.572C489.843 857.492 489.432 855.885 488.941 853.726C487.115 845.651 484.219 829.953 480.646 808.677C478.329 794.85 475.722 778.666 472.946 760.719C467.386 724.832 461.135 681.859 455.06 636.472L457.514 636.604C462.873 676.651 468.376 714.804 473.405 747.847C478.232 779.539 482.642 806.534 486.077 826.006C487.791 835.738 489.295 843.591 490.438 849.194C491.017 851.996 491.524 854.237 491.935 855.861C492.144 856.685 492.329 857.327 492.482 857.805C492.568 858.087 492.672 858.362 492.795 858.629C493.149 859.177 493.623 859.631 494.179 859.956C495.416 860.651 496.766 861.111 498.162 861.316C500.059 861.623 501.978 861.767 503.899 861.744C510.569 861.744 518.864 860.418 525.454 859.083C528.745 858.415 531.625 857.748 533.669 857.245L536.018 856.652C535.777 845.239 533.548 735.24 532.703 635.813C533.508 635.697 534.312 635.582 535.117 635.458C535.358 663.698 535.712 692.786 536.099 720.251C536.267 732.512 536.453 744.461 536.63 755.849C537.048 784.813 537.498 810.251 537.844 828.437Z" fill="black"/>
<path d="M442.026 531.944C441.731 529.356 441.439 526.772 441.149 524.19C441.113 523.864 441.205 523.537 441.404 523.281C441.603 523.024 441.893 522.859 442.211 522.822H442.3C442.603 522.809 442.9 522.914 443.131 523.116C443.362 523.318 443.511 523.601 443.547 523.91C443.89 527.024 444.244 530.145 444.609 533.271C444.673 541.338 444.77 549.1 444.891 556.5C444.392 552.297 443.896 548.098 443.402 543.901C442.944 539.912 442.477 535.924 442.026 531.944Z" fill="black"/>
<path d="M524.545 264.424L498.275 255.673L490.109 191.704L506.426 138.2C511.607 141.084 517.055 144.306 521.938 147.544L522.252 147.75L525.31 246.633C525.13 246.634 524.953 246.679 524.795 246.765C524.515 246.916 524.305 247.173 524.209 247.481C524.112 247.79 524.138 248.124 524.28 248.413C526.227 252.253 527.949 257.79 529.389 263.962C530.829 270.134 532.02 276.966 532.961 283.451C533.492 287.101 533.943 290.636 534.329 293.899C533.018 293.224 531.65 292.673 530.242 292.251C527.279 291.427 524.258 290.837 521.206 290.488C520.072 290.34 518.889 290.208 517.69 290.084L525.35 265.981C525.399 265.825 525.418 265.66 525.404 265.496C525.39 265.333 525.344 265.174 525.269 265.028C525.194 264.883 525.091 264.755 524.967 264.651C524.843 264.547 524.699 264.47 524.545 264.424Z" fill="white"/>
<path d="M491.074 369.784C491.226 369.834 491.387 369.852 491.546 369.837C491.706 369.822 491.861 369.775 492.002 369.698C492.144 369.622 492.269 369.517 492.371 369.39C492.472 369.263 492.548 369.117 492.594 368.96L497.816 352.537C511.514 356.898 525.721 359.362 540.057 359.863C540.121 361.47 540.194 363.109 540.266 364.807C540.966 381.032 541.932 401.163 543.002 423.008C545.15 466.681 547.725 517.227 549.439 557.077C550.589 583.644 551.354 605.472 551.354 617.305C551.354 619.555 551.354 621.425 551.265 622.917C551.245 623.962 551.162 625.005 551.016 626.04C550.82 626.87 550.344 627.603 549.672 628.108C548.587 628.983 547.373 629.675 546.075 630.16C541.934 631.666 537.64 632.689 533.274 633.209C522.774 634.708 509.048 635.195 495.74 635.195C474.579 635.195 454.441 633.967 449.669 633.654C449.669 633.283 449.629 632.83 449.605 632.302C449.525 630.654 449.42 628.322 449.291 625.257C449.026 619.118 448.68 610.218 448.334 599.144C447.642 576.994 446.95 546.167 446.95 511.434C446.95 476.702 447.642 438.096 449.718 400.323C450.522 385.754 451.882 371.317 453.556 357.275L491.074 369.784ZM503.336 394.505C503.392 394.785 503.464 395.123 503.569 395.51C503.762 396.293 504.052 397.298 504.446 398.501C505.456 401.605 506.625 404.653 507.946 407.632C511.068 414.751 515.791 423.453 522.268 430.704C522.49 430.905 522.777 431.014 523.073 431.012C523.37 431.01 523.655 430.896 523.875 430.693C524.094 430.489 524.233 430.21 524.265 429.908C524.296 429.606 524.218 429.303 524.046 429.056C515.364 419.316 509.796 406.618 507.254 399.284C506.644 397.591 506.131 395.863 505.717 394.109C505.688 393.979 505.67 393.847 505.661 393.714C505.661 393.386 505.534 393.072 505.307 392.84C505.081 392.608 504.774 392.478 504.454 392.478C504.134 392.478 503.827 392.608 503.601 392.84C503.374 393.072 503.247 393.386 503.247 393.714C503.255 393.969 503.284 394.222 503.336 394.472V394.505Z" fill="white"/>
<path d="M485.554 125.394C485.682 125.37 485.813 125.37 485.941 125.394C486.137 125.428 486.331 125.478 486.52 125.543C487.284 125.798 488.523 126.326 490.221 127.108C492.377 128.097 495.242 129.498 498.492 131.171L485.554 125.394Z" fill="black"/>
<path d="M522.662 145.105C522.366 144.98 522.033 144.982 521.737 145.108C521.441 145.235 521.207 145.477 521.085 145.781C520.964 146.084 520.965 146.425 521.088 146.728C521.212 147.031 521.448 147.271 521.745 147.396C521.914 147.462 522.075 147.544 522.244 147.618V147.75L521.93 147.544C517.046 144.306 511.599 141.084 506.417 138.2L507.029 136.172C507.069 136.036 507.085 135.894 507.077 135.752C510.521 137.656 514.101 139.724 517.537 141.858C519.307 142.946 521.045 144.042 522.727 145.154L522.622 145.105H522.662Z" fill="black"/>
<path d="M468.907 242.522C468.848 243.653 468.792 244.752 468.738 245.818L468.465 245.727C468.634 244.648 468.779 243.576 468.907 242.522Z" fill="black"/>
<path d="M532.671 635.78C529.236 636.241 525.519 636.604 521.6 636.884C513.458 637.461 504.495 637.708 495.725 637.708C480.791 637.708 466.389 637.098 457.482 636.628L455.028 636.496C450.885 636.258 448.423 636.084 448.415 636.084C448.121 636.063 447.845 635.932 447.639 635.716C447.433 635.501 447.311 635.216 447.296 634.914C447.296 634.914 445.647 602.967 444.883 556.541C444.762 549.125 444.665 541.379 444.601 533.312C444.545 526.242 444.512 518.949 444.512 511.475C444.512 476.71 445.204 438.03 447.288 400.232C448.093 385.399 449.485 370.781 451.191 356.558L453.532 357.341C451.858 371.35 450.499 385.82 449.694 400.388C447.618 438.137 446.926 476.767 446.926 511.5C446.926 546.233 447.618 577.059 448.31 599.209C448.656 610.284 449.002 619.184 449.268 625.323C449.396 628.388 449.501 630.761 449.581 632.368C449.581 632.904 449.63 633.349 449.646 633.72C454.417 634.033 474.588 635.26 495.717 635.26C509.025 635.26 522.751 634.774 533.251 633.275C537.621 632.761 541.921 631.744 546.068 630.242C547.365 629.758 548.579 629.065 549.664 628.19C550.337 627.685 550.813 626.952 551.008 626.122C551.154 625.087 551.238 624.044 551.258 622.999C551.314 621.524 551.346 619.637 551.346 617.387C551.346 605.554 550.541 583.726 549.431 557.159C547.717 517.309 545.143 466.772 542.994 423.09C541.924 401.245 540.959 381.114 540.259 364.889C540.186 363.2 540.114 361.593 540.05 359.945C540.854 359.945 541.659 360.003 542.463 360.011C542.745 366.702 543.075 374.151 543.453 382.21C545.167 419.374 547.741 469.236 549.89 514.269C552.038 559.302 553.752 599.489 553.76 617.379C553.76 619.645 553.76 621.557 553.671 623.09C553.647 624.251 553.55 625.41 553.382 626.559C553.089 627.953 552.326 629.196 551.225 630.069C549.278 631.717 546.341 632.953 542.632 633.95C540.138 634.591 537.614 635.102 535.069 635.483C534.297 635.549 533.492 635.664 532.671 635.78Z" fill="black"/>
<path d="M440.45 141.677C438.207 140.62 436.213 139.083 434.6 137.17C434.463 132.464 434.302 128.616 434.093 125.955C434.053 125.369 434.005 124.842 433.956 124.372C435.928 123.548 437.32 123.029 437.569 122.939H437.609C437.822 122.863 438.011 122.729 438.153 122.55C438.295 122.37 438.386 122.154 438.414 121.925L440.586 104.101C440.948 103.945 441.439 103.731 442.002 103.467C443.381 102.841 444.724 102.136 446.025 101.357C446.846 100.882 447.606 100.303 448.286 99.6352C448.67 99.2648 448.948 98.7949 449.091 98.2755C449.132 98.1003 449.136 97.9179 449.101 97.7412C449.067 97.5644 448.995 97.3976 448.89 97.2523C448.786 97.1071 448.652 96.987 448.498 96.9004C448.343 96.8138 448.172 96.7628 447.997 96.7511L440.273 96.2566H440.096H439.758C439.32 96.2166 438.885 96.1506 438.454 96.0589C436.924 95.7429 435.445 95.2075 434.061 94.4685C430.609 92.6392 426.409 89.0299 423.481 81.5395C421.936 77.8232 421.067 71.9561 421.067 65.1909C421.109 57.0817 422.221 49.0156 424.374 41.2117C424.68 40.6761 425.066 40.0251 425.589 39.2258C428.134 35.3664 430.918 31.6782 433.924 28.1838C433.924 29.0079 433.868 29.9061 433.868 30.7548C433.868 44.2523 438.696 54.3549 444.448 59.5545C446.146 61.1641 448.184 62.3512 450.402 63.0237C451.11 63.2275 451.84 63.3383 452.575 63.3533C453.067 63.3584 453.556 63.2805 454.023 63.1225C454.461 62.9594 454.862 62.7039 455.198 62.3727C455.781 61.7394 456.179 60.9516 456.348 60.0984C456.483 59.5368 456.582 58.9671 456.646 58.3926C456.751 57.5686 456.831 56.7446 456.952 55.9206C457.095 54.7777 457.365 53.6553 457.756 52.575C458.358 50.9644 459.386 49.5576 460.725 48.5126C461.264 48.0883 461.85 47.7314 462.471 47.4496C462.842 47.2591 463.248 47.1523 463.662 47.1364C463.88 47.1327 464.095 47.1836 464.29 47.2848C464.521 47.41 464.724 47.5841 464.885 47.7957C465.472 48.5874 465.888 49.4972 466.108 50.4655C466.824 53.0282 467.194 57.0577 467.186 62.4139C467.186 66.3857 466.993 71.0826 466.623 76.4223C466.55 77.4524 466.518 78.4247 466.518 79.3394C466.518 83.0969 467.09 85.9316 468.127 88.0329C468.803 89.4627 469.849 90.6744 471.153 91.535C470.188 98.5006 469.65 105.521 469.544 112.556C469.528 115.696 469.709 118.833 470.083 121.95C470.113 122.179 470.193 122.399 470.316 122.593C470.4 122.723 470.497 122.845 470.606 122.955C470.799 123.148 471.009 123.322 471.233 123.474C471.782 123.84 472.352 124.173 472.939 124.471C473.977 125.007 475.248 125.592 476.56 126.177C476.455 127.916 476.302 130.38 476.109 133.445C476.045 134.45 475.98 135.53 475.908 136.659C470.807 140.276 462.761 143.655 450.29 143.663C446.908 143.743 443.549 143.065 440.45 141.677Z" fill="white"/>
<path d="M438.767 104.217C438.933 104.342 439.127 104.422 439.331 104.45C439.535 104.477 439.742 104.451 439.934 104.374L440.594 104.085L438.421 121.909C438.393 122.138 438.303 122.354 438.16 122.533C438.018 122.713 437.83 122.847 437.617 122.923H437.577C437.327 123.013 435.967 123.516 433.964 124.356C433.908 123.812 433.843 123.335 433.779 122.939C433.719 122.604 433.628 122.275 433.505 121.958C433.508 121.936 433.508 121.914 433.505 121.892C434.64 121.415 435.549 121.068 436.128 120.846L438.301 103.096C438.278 103.309 438.309 103.523 438.391 103.719C438.473 103.916 438.602 104.087 438.767 104.217Z" fill="black"/>
<path d="M422.241 43.7333C422.496 43.7408 422.746 43.6649 422.956 43.5168C423.166 43.3686 423.324 43.1558 423.408 42.9093L423.464 42.7774C423.512 42.6538 423.609 42.4396 423.762 42.1347C423.915 41.8298 424.067 41.5496 424.285 41.1624C422.152 48.9552 421.056 57.0072 421.026 65.1003C421.026 71.8656 421.919 77.7326 423.44 81.449C426.369 88.9394 430.569 92.5486 434.02 94.378C435.404 95.117 436.883 95.6524 438.413 95.9683C438.844 96.06 439.279 96.1261 439.717 96.1661H440.055H439.998C439.684 96.1477 439.375 96.2551 439.136 96.4657C438.897 96.6763 438.748 96.9737 438.719 97.295L438.622 98.4898C436.632 98.1618 434.706 97.5079 432.918 96.5534C429 94.5016 424.325 90.3567 421.211 82.3637C419.465 78.1364 418.596 72.0551 418.588 65.0591C418.618 57.6576 419.52 50.2869 421.276 43.1071C421.372 43.286 421.511 43.4371 421.68 43.5466C421.849 43.656 422.042 43.7202 422.241 43.7333Z" fill="black"/>
<path d="M439.436 143.918C437.714 143.106 436.117 142.04 434.697 140.754C434.697 139.518 434.64 138.282 434.6 137.17C436.213 139.083 438.207 140.62 440.449 141.677C443.543 143.066 446.896 143.747 450.273 143.671C462.745 143.671 470.79 140.284 475.892 136.667C475.827 137.648 475.771 138.678 475.699 139.749C470.171 143.218 462.02 146.152 450.273 146.143C446.546 146.221 442.846 145.461 439.436 143.918Z" fill="black"/>
<path d="M476.559 125.963C476.559 126.028 476.559 126.111 476.559 126.185C475.247 125.6 473.976 125.015 472.938 124.479C472.351 124.181 471.782 123.848 471.232 123.482C471.008 123.33 470.798 123.156 470.605 122.963C470.497 122.852 470.4 122.731 470.315 122.601C470.192 122.407 470.112 122.187 470.082 121.958C469.708 118.841 469.528 115.704 469.543 112.564C469.65 105.529 470.187 98.5086 471.152 91.543L471.466 91.7243L471.321 92.3588V92.5565C471.321 92.9109 471.273 93.5124 471.249 94.3364C471.224 95.1604 471.2 96.207 471.176 97.3936C471.128 99.7503 471.08 102.667 471.039 105.502C470.951 111.171 470.878 116.536 470.878 116.536C470.877 116.82 470.97 117.097 471.143 117.32C471.315 117.543 471.557 117.7 471.828 117.763L472.126 117.838C472.198 119.016 472.303 120.178 472.439 121.332L472.512 121.389C472.879 121.643 473.26 121.874 473.654 122.081C474.459 122.526 475.561 123.045 476.72 123.565C476.679 123.96 476.631 124.768 476.559 125.963Z" fill="black"/>
<path d="M473.301 113.915C473.301 112.267 473.349 110.051 473.389 107.636C473.462 102.816 473.55 97.27 473.63 94.4106C473.63 93.6772 473.671 93.1251 473.695 92.8285L474.041 91.3452C474.108 91.0559 474.072 90.7514 473.94 90.4868C473.807 90.2223 473.586 90.0152 473.317 89.9032C471.969 89.3411 470.882 88.2744 470.275 86.9202C469.471 85.2722 468.924 82.8495 468.924 79.3474C468.924 78.4959 468.956 77.5813 469.02 76.6034C469.398 71.1896 469.591 66.4432 469.591 62.389C469.625 59.3408 469.464 56.2936 469.109 53.267C468.921 51.1965 468.376 49.1765 467.5 47.301C467.037 46.3429 466.29 45.5587 465.367 45.0597C464.844 44.798 464.268 44.6627 463.686 44.6642C462.934 44.6818 462.193 44.8615 461.513 45.1915C460.724 45.5675 459.982 46.0377 459.301 46.5924C457.397 48.0896 455.992 50.1533 455.278 52.5006C454.785 54.3 454.459 56.143 454.304 58.0051C454.244 58.771 454.073 59.5235 453.797 60.2383C453.725 60.4212 453.602 60.5786 453.443 60.6915C453.201 60.8385 452.92 60.9047 452.639 60.881C452.11 60.866 451.586 60.7829 451.078 60.6338C449.199 60.0629 447.474 59.0531 446.041 57.6838C444.121 55.906 442.491 53.8251 441.214 51.5201C438.309 46.4029 436.241 39.3245 436.249 30.7381C436.252 28.7258 436.359 26.7151 436.571 24.7145C436.598 24.4543 436.544 24.1919 436.417 23.9651C436.289 23.7383 436.095 23.5589 435.861 23.4526C435.628 23.3463 435.367 23.3187 435.117 23.3736C434.868 23.4286 434.641 23.5634 434.471 23.7586C427.898 31.2573 424.518 36.0613 422.813 38.863C422.553 37.0402 422.421 35.2007 422.418 33.3585C422.339 28.2326 423.52 23.1686 425.854 18.6332C428.549 13.6313 433.16 8.95086 441.141 5.869C446.573 3.70538 452.339 2.55556 458.166 2.47402C462.447 2.42126 466.693 3.2624 470.645 4.94609C474.73 6.74978 478.321 9.55067 481.105 13.104C487.18 20.7097 491.219 33.1031 491.219 51.9897C491.186 58.8787 490.734 65.7589 489.867 72.5904C489.829 72.9132 489.915 73.2386 490.109 73.4968C494.267 78.8389 497.824 84.6437 500.713 90.8014C502.893 95.7455 503.811 99.7997 503.811 103.112C503.864 105.372 503.343 107.607 502.298 109.597C501.308 111.373 499.897 112.863 498.195 113.932C494.727 116.206 489.851 117.228 484.742 117.228C482.793 117.223 480.847 117.083 478.917 116.808L473.285 115.555C473.285 115.127 473.293 114.542 473.301 113.915Z" fill="black"/>
<path d="M470.846 116.536C470.846 116.536 470.918 111.171 471.007 105.502C471.047 102.668 471.095 99.734 471.144 97.3938C471.144 96.2072 471.192 95.1689 471.216 94.3366C471.24 93.5043 471.264 92.911 471.289 92.5567V92.359L471.433 91.7244L471.12 91.5432C469.816 90.6826 468.769 89.4709 468.094 88.0411C467.048 85.9315 466.485 83.0969 466.485 79.3476C466.485 78.4329 466.485 77.4606 466.59 76.4305C466.96 71.0579 467.153 66.3609 467.153 62.4221C467.153 57.0906 466.791 53.0364 466.075 50.4737C465.866 49.5052 465.46 48.5926 464.884 47.7956C464.721 47.593 464.518 47.4275 464.289 47.3094C464.094 47.2083 463.879 47.1574 463.661 47.1611C463.247 47.177 462.841 47.2838 462.47 47.4742C461.861 47.7693 461.289 48.1372 460.764 48.5702C459.425 49.6152 458.397 51.0221 457.796 52.6326C457.404 53.7129 457.134 54.8354 456.991 55.9782C456.87 56.8022 456.79 57.6263 456.685 58.4503C456.621 59.0248 456.522 59.5945 456.388 60.156C456.207 60.9896 455.806 61.7563 455.229 62.3726C454.893 62.7039 454.493 62.9593 454.054 63.1225C453.587 63.2804 453.098 63.3584 452.606 63.3532C451.871 63.3382 451.141 63.2275 450.434 63.0236C448.206 62.3547 446.16 61.1674 444.455 59.5545C438.719 54.3549 433.883 44.2523 433.875 30.7548C433.875 29.9307 433.875 29.049 433.931 28.1838C430.914 31.6531 428.116 35.3165 425.556 39.1516C425.033 39.9756 424.646 40.6019 424.341 41.1375C424.123 41.5248 423.946 41.8544 423.818 42.1098C423.689 42.3653 423.568 42.629 423.52 42.7526L423.464 42.8844C423.391 43.104 423.259 43.298 423.084 43.4441C422.908 43.5902 422.695 43.6824 422.471 43.71C422.246 43.7376 422.018 43.6995 421.814 43.6C421.609 43.5006 421.437 43.3439 421.315 43.1481C421.247 43.0477 421.195 42.9363 421.162 42.8185C420.409 39.725 420.036 36.547 420.052 33.3587C419.976 27.8155 421.259 22.3414 423.785 17.4385C426.73 11.9505 431.872 6.80856 440.336 3.55365C446.025 1.29189 452.063 0.0891499 458.166 0.00210026C462.772 -0.0497409 467.341 0.858622 471.594 2.67195C477.942 5.44891 483.51 10.5908 487.413 18.6251C491.315 26.6593 493.64 37.5777 493.64 51.9899C493.606 58.7981 493.168 65.5979 492.329 72.3516C496.476 77.728 500.027 83.5594 502.917 89.7385C505.202 94.8887 506.232 99.289 506.232 103.071C506.279 105.77 505.645 108.435 504.389 110.809C502.539 114 499.668 116.436 496.263 117.706C492.586 119.101 488.686 119.78 484.765 119.708C482.693 119.704 480.623 119.555 478.57 119.263H478.482L472.125 117.838L471.811 117.772C471.536 117.711 471.29 117.555 471.114 117.33C470.938 117.105 470.843 116.824 470.846 116.536ZM478.892 116.816C480.822 117.091 482.768 117.232 484.717 117.236C489.826 117.236 494.702 116.206 498.17 113.94C499.872 112.872 501.283 111.381 502.273 109.606C503.333 107.605 503.863 105.355 503.81 103.08C503.81 99.7834 502.893 95.6633 500.712 90.7686C497.823 84.6109 494.266 78.8061 490.108 73.464C489.915 73.2058 489.828 72.8804 489.867 72.5576C490.734 65.7261 491.185 58.8459 491.218 51.9569C491.218 33.0703 487.195 20.644 481.105 13.0712C478.321 9.51788 474.73 6.71699 470.645 4.9133C466.692 3.2296 462.446 2.38846 458.166 2.44122C452.348 2.53194 446.593 3.68728 441.173 5.85269C433.191 8.93454 428.581 13.615 425.885 18.6169C423.552 23.1523 422.37 28.2163 422.45 33.3422C422.452 35.1843 422.584 37.0239 422.844 38.8467C424.55 36.045 427.929 31.2409 434.503 23.7423C434.674 23.5442 434.903 23.4077 435.156 23.3528C435.408 23.2979 435.672 23.3275 435.907 23.4373C436.142 23.5471 436.336 23.7312 436.462 23.9626C436.587 24.194 436.636 24.4605 436.603 24.7229C436.391 26.7235 436.284 28.7342 436.281 30.7465C436.281 39.3329 438.341 46.403 441.245 51.5285C442.523 53.8335 444.153 55.9144 446.073 57.6922C447.496 59.05 449.206 60.0538 451.069 60.6257C451.577 60.7748 452.102 60.8579 452.63 60.8729C452.911 60.8967 453.192 60.8304 453.435 60.6834C453.593 60.5705 453.716 60.4131 453.789 60.2302C454.064 59.5155 454.235 58.7629 454.296 57.9971C454.437 56.139 454.75 54.2988 455.229 52.5008C455.943 50.1535 457.348 48.0898 459.252 46.5925C459.933 46.0379 460.676 45.5676 461.464 45.1917C462.144 44.8616 462.885 44.682 463.637 44.6643C464.22 44.6629 464.795 44.7982 465.318 45.0599C466.242 45.5588 466.988 46.3431 467.451 47.3012C468.328 49.1767 468.872 51.1966 469.06 53.2672C469.415 56.2938 469.576 59.3409 469.543 62.3891C469.543 66.4433 469.349 71.1897 468.971 76.6036C468.907 77.5869 468.875 78.5016 468.875 79.3476C468.875 82.8497 469.422 85.2888 470.226 86.9204C470.833 88.2746 471.921 89.3412 473.268 89.9034C473.537 90.0154 473.758 90.2224 473.891 90.487C474.024 90.7515 474.059 91.0561 473.992 91.3454L473.646 92.8287C473.646 93.1253 473.606 93.6527 473.582 94.4108C473.501 97.2701 473.413 102.816 473.34 107.636C473.3 110.051 473.268 112.284 473.252 113.915C473.252 114.575 473.252 115.127 473.252 115.564L478.892 116.816Z" fill="black"/>
<path d="M413.889 295.827C413.823 297.406 414.164 298.975 414.879 300.376C415.739 301.793 416.769 303.094 417.944 304.249C419.286 305.597 420.713 306.853 422.217 308.007C423.19 308.756 424.204 309.482 425.218 310.166L414.758 343.077C414.711 343.233 414.694 343.398 414.709 343.561C414.724 343.724 414.77 343.882 414.845 344.027C414.92 344.171 415.022 344.3 415.145 344.404C415.268 344.508 415.41 344.587 415.563 344.635L431.896 350.073C432.178 369.982 432.347 390.492 432.347 411.29C432.347 486.062 430.206 564.559 423.81 632.08C401.225 631.717 383.146 628.462 369.243 623.691C355.106 618.846 345.282 612.443 339.376 606.024C335.434 601.739 333.245 597.47 332.61 593.663C332.505 592.877 332.446 592.084 332.433 591.29C332.433 590.145 332.368 588.67 332.368 586.898C332.368 568.259 334.702 516.856 338.692 456.059C339.416 444.943 340.205 433.506 341.034 421.912C341.838 423.263 342.361 423.988 342.369 424.005C342.469 424.157 342.601 424.284 342.755 424.377C342.909 424.47 343.082 424.526 343.26 424.542C343.438 424.558 343.618 424.533 343.785 424.468C343.953 424.404 344.104 424.302 344.228 424.17C344.228 424.17 345.644 422.678 347.736 420.124C349.79 424.839 352.211 429.378 354.977 433.695L348.734 434.569C348.414 434.614 348.124 434.787 347.929 435.05C347.733 435.314 347.648 435.646 347.692 435.974C347.735 436.302 347.905 436.598 348.162 436.798C348.419 436.998 348.743 437.086 349.063 437.041L358.075 435.78C358.274 435.751 358.463 435.668 358.622 435.541C358.844 435.475 359.061 435.395 359.274 435.302C359.971 434.972 360.614 434.532 361.181 434C362.409 432.775 363.426 431.345 364.19 429.773C366.029 425.927 367.42 421.872 368.333 417.693C369.621 412.003 370.567 406.238 371.166 400.429L373.579 387.369C373.62 387.205 373.628 387.035 373.602 386.869C373.577 386.702 373.518 386.543 373.43 386.401C373.342 386.258 373.227 386.136 373.091 386.041C372.955 385.946 372.801 385.881 372.64 385.848C372.478 385.816 372.312 385.818 372.152 385.855C371.991 385.891 371.839 385.96 371.706 386.058C371.572 386.157 371.459 386.282 371.375 386.427C371.29 386.571 371.236 386.732 371.214 386.899L369.379 396.631L365.179 388.695C365.638 387.047 366.032 385.399 366.33 383.751C366.346 383.642 366.346 383.531 366.33 383.421C364.801 365.853 362.806 353.163 361.197 342.319C359.588 331.475 358.373 322.542 358.373 312.3C358.395 307.52 358.664 302.745 359.177 297.995C361.792 272.45 365.614 242.29 366.523 235.154C366.652 234.133 366.724 233.581 366.724 233.581C366.758 233.31 366.704 233.036 366.57 232.801C366.436 232.565 366.23 232.382 365.984 232.279L404.604 134.78L413.914 180.2L395.408 252.566C395.352 252.782 395.354 253.01 395.415 253.225C395.476 253.44 395.593 253.634 395.754 253.786L420.696 277.773C419.016 279.872 417.617 282.192 416.536 284.67C414.931 288.169 414.031 291.964 413.889 295.827ZM422.474 359.418C421.807 359.416 421.154 359.617 420.598 359.996C420.043 360.375 419.609 360.914 419.353 361.545C419.097 362.176 419.03 362.871 419.159 363.542C419.289 364.212 419.611 364.828 420.083 365.312C420.554 365.795 421.156 366.124 421.811 366.257C422.465 366.39 423.144 366.321 423.76 366.058C424.376 365.796 424.903 365.352 425.273 364.783C425.643 364.214 425.839 363.546 425.838 362.862C425.84 362.408 425.754 361.959 425.586 361.539C425.418 361.119 425.171 360.737 424.858 360.416C424.546 360.094 424.174 359.839 423.765 359.665C423.356 359.491 422.917 359.401 422.474 359.401V359.418ZM419.103 403.33C419.103 404.013 419.301 404.68 419.671 405.248C420.042 405.816 420.568 406.258 421.184 406.52C421.8 406.781 422.478 406.849 423.132 406.716C423.786 406.583 424.387 406.254 424.858 405.771C425.33 405.288 425.651 404.673 425.781 404.004C425.911 403.334 425.844 402.64 425.589 402.009C425.334 401.378 424.902 400.839 424.347 400.459C423.793 400.08 423.141 399.877 422.474 399.877C422.033 399.876 421.595 399.964 421.187 400.136C420.778 400.308 420.407 400.561 420.094 400.88C419.781 401.199 419.532 401.578 419.362 401.996C419.192 402.413 419.104 402.861 419.103 403.313V403.33ZM425.838 450.967C425.839 450.283 425.643 449.615 425.273 449.046C424.903 448.477 424.376 448.033 423.76 447.77C423.144 447.508 422.465 447.439 421.811 447.572C421.156 447.705 420.554 448.034 420.083 448.517C419.611 449.001 419.289 449.617 419.159 450.287C419.03 450.958 419.097 451.652 419.353 452.284C419.609 452.915 420.043 453.454 420.598 453.833C421.154 454.212 421.807 454.413 422.474 454.411C422.917 454.411 423.356 454.322 423.765 454.148C424.174 453.973 424.546 453.718 424.858 453.397C425.171 453.075 425.418 452.693 425.586 452.274C425.754 451.854 425.84 451.404 425.838 450.95V450.967ZM418.146 501.834C418.813 501.836 419.466 501.634 420.022 501.256C420.577 500.877 421.011 500.338 421.267 499.706C421.523 499.075 421.59 498.38 421.461 497.71C421.331 497.039 421.009 496.423 420.538 495.94C420.066 495.457 419.464 495.128 418.809 494.995C418.155 494.862 417.476 494.931 416.86 495.193C416.244 495.455 415.717 495.899 415.347 496.468C414.977 497.037 414.781 497.706 414.782 498.39C414.782 499.303 415.137 500.179 415.768 500.825C416.398 501.471 417.254 501.834 418.146 501.834Z" fill="white"/>
<path d="M418.621 124.364L415.121 125.188C416.384 124.834 417.559 124.562 418.621 124.364Z" fill="black"/>
<path d="M402.296 131.072L403.036 130.61C403.253 130.47 403.471 130.355 403.688 130.223L403.744 130.503C403.262 130.684 402.779 130.882 402.296 131.072Z" fill="black"/>
<path d="M341.058 421.903C340.253 433.497 339.448 444.976 338.716 456.051C334.693 516.815 332.392 568.25 332.392 586.89C332.392 588.661 332.392 590.136 332.457 591.282C332.47 592.076 332.529 592.868 332.634 593.655C333.269 597.437 335.458 601.706 339.4 606.015C345.306 612.435 355.13 618.837 369.267 623.683C383.17 628.454 401.249 631.709 423.834 632.071C430.23 564.567 432.371 486.054 432.371 411.282C432.371 390.483 432.202 369.973 431.92 350.065L434.334 350.889C434.615 370.542 434.776 390.78 434.776 411.298C434.776 486.54 432.612 565.572 426.127 633.464C426.097 633.771 425.955 634.056 425.731 634.262C425.506 634.468 425.214 634.58 424.912 634.576C393.823 634.222 371.005 628.437 355.476 620.568C352.781 619.212 350.165 617.698 347.639 616.036C346.754 615.451 345.917 614.866 345.105 614.272C342.412 612.329 339.911 610.121 337.638 607.68C333.454 603.14 331 598.484 330.244 594.075C330.123 593.179 330.053 592.277 330.035 591.372C330.035 590.178 329.97 588.678 329.97 586.89C329.97 573.516 331.153 543.678 333.269 505.674C334.726 479.503 336.632 449.467 338.901 418.327C339.762 419.819 340.494 421.022 341.058 421.903Z" fill="black"/>
<path d="M471.136 246.625C471.41 240.717 471.788 234.174 472.311 226.989C475.095 188.655 478.394 135.439 479.021 125.172L504.414 136.494L487.727 191.226C487.677 191.4 487.664 191.582 487.687 191.761L495.733 254.824L471.136 246.625Z" fill="white"/>
<path d="M506.425 138.2L490.108 191.704L498.275 255.673L495.732 254.849L487.686 191.786C487.663 191.607 487.677 191.424 487.726 191.251L504.414 136.519L479.021 125.197C478.393 135.464 475.094 188.647 472.31 227.013C471.787 234.199 471.409 240.742 471.136 246.65L468.722 245.826C468.776 244.727 468.832 243.628 468.891 242.53C469.143 237.679 469.47 232.438 469.873 226.807C471.417 205.531 473.091 179.64 474.443 159.081C474.901 151.829 475.32 145.245 475.666 139.757C475.738 138.686 475.794 137.656 475.859 136.675C475.931 135.546 475.995 134.467 476.06 133.462C476.253 130.396 476.406 127.932 476.51 126.194C476.51 126.12 476.51 126.037 476.51 125.971C476.583 124.776 476.631 123.969 476.655 123.565V123.268C476.668 123.071 476.727 122.879 476.826 122.71C476.926 122.541 477.064 122.398 477.229 122.295C477.394 122.192 477.581 122.13 477.773 122.116C477.966 122.102 478.159 122.135 478.337 122.214L485.482 125.403L498.419 131.171L506.296 134.681C506.565 134.807 506.78 135.028 506.903 135.304C507.025 135.579 507.047 135.89 506.964 136.181L506.425 138.2Z" fill="black"/>
<path d="M536.976 295.827C535.866 285.362 534.214 274.965 532.028 264.679C530.491 257.898 528.665 251.75 526.396 247.309C526.291 247.102 526.131 246.93 525.935 246.813C525.738 246.696 525.512 246.639 525.285 246.65L522.228 147.766V147.635C528.994 150.609 536.043 156.699 542.994 165.532C550.123 174.597 557.163 186.504 563.793 200.801C572.828 220.289 581.108 244.211 587.931 271.346C587.747 271.516 587.618 271.74 587.562 271.987C587.506 272.235 587.525 272.494 587.617 272.73L536.976 295.827Z" fill="white"/>
<path d="M596.235 297.385C597.119 301.824 597.964 306.325 598.768 310.891C598.822 311.184 598.77 311.488 598.622 311.745C598.475 312.003 598.241 312.197 597.964 312.291L597.264 312.506C597.264 312.201 597.264 311.896 597.264 311.591C597.24 306.837 596.896 302.09 596.235 297.385Z" fill="black"/>
<path d="M589.846 271.774C589.785 271.62 589.695 271.48 589.58 271.363C589.466 271.245 589.33 271.152 589.18 271.089C589.03 271.026 588.869 270.994 588.707 270.996C588.545 270.997 588.385 271.032 588.236 271.098C588.109 271.153 587.991 271.232 587.89 271.329C581.092 244.194 572.812 220.239 563.753 200.784C557.123 186.487 550.075 174.572 542.954 165.516C536.002 156.682 528.954 150.593 522.188 147.618C522.019 147.544 521.858 147.461 521.689 147.395C521.392 147.271 521.156 147.031 521.032 146.728C520.909 146.425 520.907 146.084 521.029 145.78C521.151 145.477 521.385 145.235 521.681 145.108C521.977 144.981 522.309 144.98 522.606 145.105L522.711 145.154C530.153 148.31 537.579 154.754 544.837 163.967C555.763 177.851 566.319 198.065 575.604 223.074C582.277 241.291 587.81 259.924 592.171 278.861C590.851 274.444 589.797 271.807 589.757 271.774H589.846Z" fill="black"/>
<path d="M529.388 264.004C527.948 257.832 526.226 252.294 524.279 248.454C524.137 248.165 524.112 247.831 524.208 247.522C524.304 247.214 524.515 246.957 524.794 246.806C524.953 246.72 525.129 246.675 525.309 246.674C525.536 246.664 525.762 246.721 525.958 246.838C526.155 246.954 526.315 247.126 526.419 247.333C528.664 251.775 530.491 257.922 532.051 264.704C534.229 274.982 535.872 285.371 536.976 295.827H536.919C536.845 295.65 536.729 295.494 536.581 295.374C535.884 294.804 535.129 294.312 534.328 293.907C533.942 290.611 533.524 287.109 532.961 283.459C532.019 277.007 530.861 270.175 529.388 264.004Z" fill="black"/>
<path d="M447.473 280.995C445.659 279.069 443.596 277.406 441.342 276.051C440.537 275.614 439.773 275.161 439.017 274.708L449.412 241.986L522.63 266.385L515.179 289.853C509.869 289.433 504.108 289.26 498.339 289.26C478.651 289.26 459.059 291.172 459.043 291.172C458.868 291.189 458.699 291.245 458.548 291.336C458.396 291.427 458.266 291.551 458.166 291.699C458.166 291.699 457.868 292.144 457.402 292.952C456.919 292.284 456.364 291.526 455.744 290.71C453.198 287.29 450.435 284.045 447.473 280.995Z" fill="white"/>
<path d="M417.413 342.649L427.326 311.484C428.719 312.342 430.159 313.118 431.638 313.808C433.648 314.603 435.736 315.172 437.866 315.505C440.328 315.95 443.055 316.329 445.614 316.593C446.974 316.741 448.277 316.865 449.46 316.972C449.331 317.664 449.202 318.373 449.082 319.106C449.056 319.267 449.061 319.431 449.097 319.589C449.132 319.748 449.198 319.897 449.291 320.029C459.099 334.178 474.78 344.132 492.111 350.576C493.238 350.999 494.372 351.403 495.515 351.787L490.687 367.032L417.413 342.649Z" fill="white"/>
<path d="M436.048 351.45L434.342 350.881L431.928 350.057L415.547 344.602C415.394 344.554 415.252 344.476 415.129 344.371C415.006 344.267 414.904 344.139 414.829 343.994C414.754 343.849 414.708 343.691 414.693 343.528C414.678 343.365 414.695 343.201 414.742 343.044L425.202 310.133C425.91 310.611 426.61 311.064 427.31 311.484L417.413 342.649L490.631 367.048L495.459 351.804C496.223 352.068 496.987 352.315 497.76 352.562L492.538 368.985C492.492 369.142 492.416 369.288 492.315 369.415C492.213 369.542 492.088 369.646 491.946 369.723C491.805 369.8 491.65 369.847 491.49 369.862C491.331 369.876 491.17 369.858 491.017 369.809L453.483 357.3L451.142 356.517L436.048 351.45Z" fill="black"/>
<path d="M449.412 241.994L439.017 274.716C438.301 274.288 437.585 273.892 436.861 273.497L447.49 240.049C447.534 239.892 447.61 239.745 447.711 239.617C447.813 239.49 447.938 239.385 448.08 239.308C448.222 239.231 448.377 239.184 448.537 239.17C448.697 239.156 448.858 239.175 449.01 239.225L468.481 245.71L468.755 245.801L471.169 246.625L495.765 254.824L498.307 255.648L524.577 264.399C524.731 264.445 524.875 264.523 524.999 264.626C525.123 264.73 525.226 264.858 525.301 265.004C525.376 265.149 525.422 265.308 525.436 265.472C525.45 265.636 525.431 265.8 525.382 265.957L517.658 290.059L515.196 289.837L522.646 266.369L449.412 241.994Z" fill="black"/>
<path d="M368.679 400.701C368.679 401.072 368.583 401.608 368.494 402.292C368.333 403.651 368.084 405.588 367.738 407.796C366.991 412.89 365.875 417.919 364.399 422.843C363.589 425.703 362.348 428.417 360.722 430.885C360.105 431.8 359.276 432.542 358.308 433.044C358.07 433.145 357.821 433.22 357.568 433.267C354.538 428.626 351.913 423.72 349.723 418.607C349.643 418.401 349.57 418.204 349.498 418.006C350.833 416.284 352.33 414.257 353.875 411.974C358.145 405.803 361.604 399.085 364.165 391.991L368.695 400.479C368.687 400.57 368.687 400.627 368.679 400.701Z" fill="white"/>
<path d="M368.753 400.017C368.712 400.181 368.704 400.351 368.73 400.517C368.755 400.683 368.814 400.843 368.902 400.985C368.99 401.127 369.105 401.25 369.241 401.345C369.377 401.44 369.531 401.505 369.692 401.537C369.854 401.569 370.02 401.567 370.18 401.531C370.341 401.495 370.493 401.426 370.626 401.327C370.76 401.229 370.873 401.104 370.957 400.959C371.042 400.815 371.096 400.654 371.118 400.487V400.429C370.535 406.237 369.605 412.002 368.334 417.693C367.447 421.869 366.083 425.923 364.271 429.773C363.507 431.345 362.49 432.774 361.262 434C360.696 434.532 360.053 434.972 359.355 435.302C359.143 435.395 358.925 435.475 358.703 435.541C358.879 435.412 359.017 435.237 359.102 435.033C359.187 434.83 359.216 434.607 359.186 434.387C359.165 434.226 359.114 434.071 359.034 433.931C358.954 433.79 358.848 433.667 358.721 433.569C358.595 433.471 358.451 433.4 358.297 433.359C358.143 433.318 357.983 433.309 357.826 433.333L355.059 433.72C352.293 429.403 349.871 424.864 347.817 420.148C348.354 419.489 348.933 418.764 349.555 417.973C349.628 418.171 349.7 418.368 349.78 418.574C351.979 423.7 354.614 428.616 357.657 433.267C357.911 433.219 358.159 433.145 358.398 433.044C359.365 432.542 360.195 431.8 360.811 430.885C362.438 428.417 363.678 425.703 364.488 422.843C365.964 417.919 367.08 412.89 367.827 407.796C368.173 405.571 368.423 403.676 368.584 402.292C368.672 401.608 368.728 401.072 368.769 400.701C368.769 400.627 368.769 400.569 368.769 400.512L364.239 391.958C364.609 390.879 364.947 389.791 365.261 388.662L369.461 396.598L368.753 400.017Z" fill="black"/>
<path d="M365.671 232.163C365.356 232.118 365.037 232.202 364.783 232.396C364.528 232.591 364.359 232.88 364.311 233.201C364.311 233.201 359.749 268.445 356.748 297.682C356.23 302.517 355.961 307.377 355.943 312.242C355.943 322.658 357.182 331.78 358.8 342.632C360.417 353.485 362.38 366.018 363.893 383.405C362.131 393.186 357.078 402.671 352.315 409.823C349.633 413.848 346.693 417.686 343.512 421.31C343.311 420.997 343.086 420.626 342.82 420.198C341.847 418.616 340.407 416.275 338.757 413.276C334.229 405.123 330.135 396.725 326.495 388.118C317.516 367.015 308.553 338.29 308.561 307.85C308.541 299.282 309.295 290.731 310.814 282.305C315.634 256.177 324.128 230.902 336.03 207.269C347.479 184.617 361.431 165.17 376.259 151.417C385.416 142.913 394.894 136.584 404.283 133L404.653 134.796L366.033 232.295C365.92 232.232 365.797 232.188 365.671 232.163Z" fill="white"/>
<path d="M404.242 132.95C394.853 136.551 385.375 142.839 376.218 151.367C361.398 165.12 347.446 184.567 335.989 207.22C324.087 230.852 315.593 256.127 310.773 282.256C309.254 290.681 308.5 299.232 308.52 307.8C308.52 338.24 317.475 366.965 326.454 388.069C330.117 396.691 334.234 405.103 338.789 413.268C340.47 416.267 341.878 418.607 342.852 420.189C343.117 420.618 343.343 421.013 343.544 421.302C346.724 417.677 349.665 413.84 352.346 409.815C357.109 402.662 362.162 393.178 363.924 383.397C362.412 366.01 360.432 353.443 358.831 342.624C357.23 331.804 355.975 322.649 355.975 312.234C355.993 307.369 356.261 302.509 356.779 297.673C359.756 268.47 364.31 233.201 364.31 233.201C364.352 232.877 364.518 232.583 364.772 232.384C365.025 232.184 365.345 232.096 365.662 232.138C365.764 232.153 365.864 232.181 365.96 232.221C366.206 232.324 366.412 232.507 366.546 232.743C366.68 232.978 366.734 233.252 366.7 233.523C366.7 233.523 366.628 234.075 366.499 235.097C365.59 242.233 361.768 272.4 359.153 297.937C358.64 302.687 358.371 307.462 358.348 312.242C358.348 322.452 359.563 331.417 361.172 342.261C362.782 353.105 364.777 365.795 366.306 383.364C366.322 383.473 366.322 383.584 366.306 383.693C366.008 385.341 365.614 386.989 365.155 388.637C364.841 389.733 364.503 390.821 364.133 391.933C361.577 399.035 358.119 405.762 353.851 411.941C352.306 414.223 350.809 416.251 349.474 417.973C348.857 418.764 348.278 419.489 347.736 420.148C345.644 422.703 344.244 424.178 344.228 424.194C344.104 424.326 343.953 424.428 343.785 424.493C343.618 424.557 343.438 424.582 343.26 424.566C343.082 424.551 342.909 424.494 342.755 424.401C342.601 424.308 342.469 424.181 342.369 424.029C342.369 424.029 341.878 423.288 341.034 421.936C340.47 421.022 339.738 419.819 338.877 418.352C333.384 408.931 328.49 399.157 324.226 389.091C315.166 367.781 306.09 338.767 306.09 307.833C306.079 299.107 306.855 290.399 308.407 281.819C314.917 246.081 328.764 211.67 346.223 184.394C354.945 170.748 364.56 158.891 374.625 149.546C383.596 141.224 392.93 134.887 402.319 131.088C402.802 130.898 403.285 130.701 403.767 130.519L404.242 132.95Z" fill="black"/>
<path d="M431.092 271.758C429.878 271.767 428.677 272.01 427.551 272.475C426.163 273.057 424.862 273.839 423.689 274.798C423.247 275.153 422.812 275.54 422.394 275.944L397.975 252.451L416.335 180.513C416.38 180.326 416.38 180.131 416.335 179.945L406.069 129.852L431.462 123.878C431.542 124.479 431.615 125.279 431.687 126.243C431.832 128.171 431.96 130.759 432.073 133.873C432.298 140.087 432.459 148.368 432.58 157.614C432.829 176.105 432.934 198.444 433.111 215.88C433.224 227.507 433.369 236.951 433.61 241.672C433.9 247.185 433.996 253.629 433.996 259.958C433.996 264.177 433.956 268.354 433.892 272.17C432.983 271.895 432.039 271.756 431.092 271.758Z" fill="white"/>
<path d="M433.771 122.955C433.835 123.35 433.9 123.828 433.956 124.372C434.012 124.916 434.052 125.369 434.093 125.954C434.302 128.616 434.463 132.464 434.6 137.169C434.64 138.315 434.672 139.518 434.696 140.754C434.769 143.49 434.825 146.448 434.881 149.579C435.155 165.17 435.275 185.012 435.412 202.515C435.549 220.017 435.71 235.261 436.032 241.565C436.321 247.144 436.418 253.621 436.418 259.982C436.418 264.572 436.37 269.104 436.297 273.167C435.522 272.764 434.715 272.43 433.884 272.169C433.948 268.354 433.988 264.176 433.988 259.957C433.988 253.629 433.892 247.185 433.602 241.672C433.361 236.951 433.216 227.507 433.103 215.88C432.926 198.444 432.821 176.104 432.572 157.613C432.451 148.368 432.29 140.086 432.065 133.873C431.952 130.758 431.824 128.171 431.679 126.243C431.607 125.279 431.534 124.479 431.454 123.878L406.061 129.852L416.327 179.944C416.372 180.131 416.372 180.326 416.327 180.513L397.967 252.451L422.386 275.943C421.815 276.509 421.278 277.109 420.777 277.74L395.834 253.752C395.674 253.601 395.556 253.407 395.496 253.192C395.435 252.977 395.432 252.749 395.488 252.533L413.994 180.167L404.685 134.747L404.315 132.95L403.816 130.478L403.76 130.198L403.542 129.151C403.484 128.85 403.537 128.537 403.692 128.273C403.846 128.009 404.091 127.814 404.379 127.726L415.12 125.196L418.62 124.372L432.13 121.191C432.401 121.128 432.686 121.164 432.935 121.293C433.183 121.423 433.379 121.638 433.489 121.9C433.492 121.922 433.492 121.944 433.489 121.966C433.615 122.285 433.709 122.616 433.771 122.955Z" fill="black"/>
<path d="M369.709 401.468C369.553 401.438 369.404 401.377 369.27 401.288C369.137 401.199 369.023 401.083 368.934 400.948C368.845 400.813 368.783 400.661 368.751 400.502C368.72 400.342 368.72 400.177 368.752 400.018L369.387 396.631L371.222 386.899C371.243 386.732 371.298 386.571 371.383 386.427C371.467 386.282 371.58 386.157 371.713 386.059C371.847 385.96 371.999 385.891 372.159 385.855C372.32 385.819 372.486 385.817 372.648 385.849C372.809 385.881 372.963 385.946 373.099 386.041C373.234 386.136 373.35 386.259 373.438 386.401C373.526 386.544 373.584 386.703 373.61 386.869C373.636 387.036 373.628 387.206 373.587 387.369L371.174 400.43V400.487C371.145 400.653 371.084 400.81 370.994 400.951C370.903 401.091 370.786 401.211 370.649 401.303C370.512 401.395 370.357 401.457 370.196 401.485C370.034 401.513 369.869 401.508 369.709 401.468Z" fill="black"/>
<path d="M357.794 433.333C357.951 433.309 358.111 433.318 358.264 433.359C358.418 433.4 358.562 433.471 358.689 433.569C358.815 433.667 358.921 433.79 359.001 433.931C359.081 434.071 359.133 434.226 359.154 434.387C359.184 434.607 359.154 434.83 359.069 435.033C358.984 435.237 358.846 435.412 358.671 435.541C358.512 435.668 358.323 435.75 358.124 435.78L349.112 437.041C348.792 437.086 348.468 436.998 348.211 436.798C347.953 436.598 347.784 436.301 347.74 435.974C347.697 435.646 347.782 435.314 347.977 435.05C348.173 434.787 348.462 434.613 348.782 434.569L355.026 433.695L357.794 433.333Z" fill="black"/>
<path d="M422.475 361.874C422.665 361.874 422.85 361.931 423.008 362.039C423.166 362.148 423.288 362.301 423.361 362.481C423.433 362.66 423.451 362.858 423.414 363.049C423.376 363.239 423.284 363.414 423.149 363.55C423.015 363.687 422.843 363.78 422.657 363.817C422.471 363.854 422.278 363.833 422.104 363.758C421.929 363.682 421.78 363.555 421.676 363.393C421.571 363.231 421.517 363.04 421.518 362.846C421.518 362.718 421.543 362.59 421.591 362.472C421.64 362.353 421.71 362.246 421.799 362.155C421.888 362.065 421.994 361.994 422.11 361.945C422.226 361.897 422.35 361.872 422.475 361.874Z" fill="black"/>
<path d="M422.475 366.298C421.808 366.3 421.155 366.099 420.6 365.721C420.044 365.342 419.611 364.803 419.354 364.173C419.098 363.542 419.03 362.847 419.159 362.177C419.288 361.507 419.609 360.891 420.08 360.407C420.551 359.924 421.152 359.594 421.806 359.46C422.46 359.326 423.138 359.394 423.755 359.655C424.371 359.916 424.898 360.359 425.269 360.927C425.64 361.495 425.838 362.162 425.838 362.846C425.838 363.76 425.484 364.637 424.853 365.284C424.223 365.931 423.367 366.296 422.475 366.298ZM422.475 363.826C422.664 363.826 422.849 363.769 423.007 363.661C423.164 363.553 423.287 363.4 423.359 363.221C423.432 363.042 423.451 362.845 423.414 362.654C423.377 362.464 423.286 362.289 423.152 362.152C423.018 362.015 422.847 361.922 422.662 361.884C422.476 361.846 422.283 361.866 422.108 361.94C421.933 362.014 421.784 362.14 421.679 362.301C421.573 362.462 421.517 362.652 421.517 362.846C421.516 362.975 421.54 363.103 421.588 363.222C421.636 363.342 421.706 363.45 421.795 363.542C421.884 363.633 421.99 363.705 422.107 363.754C422.224 363.803 422.349 363.827 422.475 363.826Z" fill="black"/>
<path d="M422.475 402.333C422.665 402.333 422.85 402.391 423.007 402.498C423.165 402.606 423.287 402.759 423.36 402.939C423.432 403.118 423.451 403.315 423.414 403.505C423.377 403.695 423.286 403.87 423.152 404.007C423.018 404.144 422.848 404.238 422.662 404.276C422.476 404.313 422.284 404.294 422.109 404.22C421.934 404.145 421.785 404.02 421.68 403.859C421.574 403.697 421.518 403.508 421.518 403.314C421.517 403.185 421.541 403.057 421.589 402.937C421.637 402.818 421.707 402.709 421.796 402.618C421.885 402.527 421.991 402.454 422.108 402.406C422.224 402.357 422.349 402.332 422.475 402.333Z" fill="black"/>
<path d="M422.474 399.861C423.141 399.861 423.793 400.063 424.347 400.443C424.902 400.822 425.334 401.361 425.589 401.992C425.844 402.623 425.911 403.317 425.781 403.987C425.651 404.657 425.33 405.272 424.858 405.755C424.387 406.238 423.786 406.567 423.132 406.7C422.478 406.833 421.8 406.765 421.184 406.503C420.568 406.242 420.042 405.799 419.671 405.232C419.301 404.664 419.103 403.996 419.103 403.313C419.102 402.86 419.189 402.41 419.358 401.991C419.527 401.571 419.775 401.19 420.088 400.87C420.402 400.549 420.774 400.294 421.183 400.121C421.593 399.948 422.031 399.86 422.474 399.861ZM422.474 404.286C422.664 404.286 422.85 404.228 423.007 404.12C423.165 404.012 423.288 403.858 423.36 403.678C423.432 403.499 423.451 403.301 423.413 403.111C423.375 402.92 423.283 402.746 423.149 402.609C423.014 402.472 422.843 402.379 422.656 402.342C422.47 402.306 422.277 402.326 422.102 402.402C421.928 402.477 421.779 402.604 421.674 402.766C421.57 402.929 421.515 403.119 421.517 403.313C421.517 403.442 421.542 403.569 421.59 403.687C421.638 403.806 421.709 403.913 421.798 404.004C421.887 404.094 421.993 404.166 422.109 404.214C422.225 404.262 422.349 404.287 422.474 404.286Z" fill="black"/>
<path d="M422.475 449.97C422.665 449.97 422.85 450.027 423.007 450.135C423.165 450.243 423.287 450.396 423.36 450.575C423.432 450.754 423.451 450.951 423.414 451.142C423.377 451.332 423.286 451.506 423.152 451.644C423.018 451.781 422.848 451.874 422.662 451.912C422.476 451.95 422.284 451.93 422.109 451.856C421.934 451.782 421.785 451.656 421.68 451.495C421.574 451.334 421.518 451.144 421.518 450.95C421.517 450.821 421.541 450.693 421.589 450.574C421.637 450.454 421.707 450.346 421.796 450.254C421.885 450.163 421.991 450.091 422.108 450.042C422.224 449.993 422.349 449.969 422.475 449.97Z" fill="black"/>
<path d="M419.103 450.951C419.102 450.267 419.298 449.599 419.667 449.03C420.037 448.461 420.563 448.018 421.179 447.755C421.795 447.492 422.473 447.423 423.127 447.555C423.782 447.687 424.383 448.016 424.855 448.498C425.328 448.981 425.65 449.596 425.78 450.266C425.911 450.936 425.845 451.63 425.59 452.262C425.335 452.893 424.903 453.433 424.348 453.813C423.794 454.192 423.142 454.395 422.474 454.395C422.032 454.396 421.594 454.308 421.185 454.135C420.776 453.963 420.404 453.709 420.091 453.389C419.778 453.069 419.53 452.689 419.36 452.271C419.19 451.852 419.103 451.404 419.103 450.951ZM422.474 451.923C422.664 451.923 422.85 451.865 423.007 451.757C423.165 451.649 423.288 451.495 423.36 451.316C423.432 451.136 423.451 450.939 423.413 450.748C423.375 450.558 423.283 450.383 423.149 450.246C423.014 450.109 422.843 450.017 422.656 449.98C422.47 449.943 422.277 449.963 422.102 450.039C421.928 450.114 421.779 450.241 421.674 450.404C421.57 450.566 421.515 450.756 421.517 450.951C421.517 451.079 421.542 451.206 421.59 451.325C421.638 451.443 421.709 451.551 421.798 451.641C421.887 451.732 421.993 451.803 422.109 451.851C422.225 451.9 422.349 451.924 422.474 451.923Z" fill="black"/>
<path d="M418.146 497.376C418.336 497.375 418.522 497.431 418.68 497.537C418.839 497.644 418.962 497.797 419.036 497.976C419.11 498.155 419.13 498.352 419.094 498.543C419.058 498.734 418.967 498.909 418.834 499.047C418.7 499.185 418.53 499.279 418.344 499.318C418.158 499.356 417.965 499.338 417.79 499.264C417.614 499.19 417.464 499.064 417.359 498.902C417.253 498.741 417.197 498.551 417.197 498.357C417.197 498.098 417.297 497.85 417.475 497.666C417.652 497.483 417.894 497.378 418.146 497.376Z" fill="black"/>
<path d="M418.146 494.904C418.813 494.902 419.466 495.103 420.021 495.482C420.577 495.86 421.01 496.399 421.266 497.029C421.523 497.66 421.591 498.355 421.462 499.025C421.332 499.695 421.012 500.311 420.541 500.795C420.07 501.279 419.469 501.608 418.815 501.742C418.161 501.876 417.482 501.808 416.866 501.547C416.249 501.286 415.722 500.843 415.352 500.276C414.981 499.708 414.783 499.04 414.783 498.356C414.783 497.442 415.137 496.565 415.767 495.918C416.398 495.271 417.253 494.906 418.146 494.904ZM418.146 499.329C418.336 499.33 418.522 499.274 418.681 499.167C418.84 499.06 418.964 498.907 419.037 498.727C419.111 498.548 419.13 498.35 419.094 498.159C419.057 497.968 418.966 497.793 418.831 497.655C418.697 497.517 418.525 497.424 418.339 497.386C418.152 497.349 417.959 497.369 417.784 497.444C417.609 497.519 417.459 497.646 417.355 497.809C417.25 497.971 417.195 498.162 417.197 498.356C417.192 498.487 417.214 498.617 417.26 498.739C417.305 498.86 417.375 498.972 417.463 499.065C417.552 499.159 417.658 499.234 417.775 499.285C417.893 499.336 418.019 499.362 418.146 499.362V499.329Z" fill="black"/>
<path d="M504.454 392.461C504.771 392.461 505.074 392.589 505.299 392.818C505.524 393.046 505.651 393.356 505.653 393.681C505.662 393.814 505.681 393.946 505.709 394.076C506.123 395.83 506.636 397.558 507.246 399.251C509.788 406.585 515.356 419.283 524.038 429.023C524.21 429.27 524.288 429.573 524.257 429.875C524.225 430.176 524.086 430.456 523.867 430.66C523.647 430.863 523.362 430.977 523.065 430.979C522.769 430.981 522.482 430.872 522.26 430.671C515.783 423.403 511.06 414.701 507.938 407.598C506.617 404.619 505.449 401.572 504.438 398.468C504.044 397.265 503.754 396.26 503.561 395.477C503.456 395.09 503.384 394.752 503.328 394.472C503.275 394.217 503.246 393.957 503.239 393.697C503.239 393.534 503.271 393.373 503.332 393.222C503.393 393.072 503.483 392.935 503.595 392.82C503.708 392.705 503.842 392.614 503.99 392.553C504.137 392.491 504.295 392.46 504.454 392.461Z" fill="black"/>
<path d="M440.851 101.275L441.06 98.8027L445.083 99.0582C444.56 99.396 443.965 99.7421 443.345 100.072C442.484 100.533 441.599 100.929 440.851 101.275Z" fill="black"/>
<path d="M440.031 96.2319H440.264L447.988 96.7263C448.164 96.738 448.335 96.789 448.489 96.8756C448.643 96.9622 448.777 97.0823 448.882 97.2276C448.986 97.3728 449.058 97.5397 449.093 97.7164C449.127 97.8931 449.124 98.0755 449.082 98.2507C448.939 98.7701 448.661 99.24 448.278 99.6104C447.597 100.279 446.838 100.857 446.017 101.333C444.715 102.112 443.372 102.816 441.994 103.442C441.431 103.706 440.94 103.92 440.578 104.077L439.918 104.365C439.726 104.442 439.519 104.469 439.315 104.441C439.11 104.414 438.916 104.334 438.751 104.209C438.585 104.084 438.453 103.917 438.367 103.726C438.282 103.534 438.245 103.323 438.261 103.112L438.631 98.5721L438.727 97.3772C438.752 97.0484 438.903 96.743 439.147 96.5282C439.392 96.3135 439.71 96.2069 440.031 96.2319ZM445.083 99.0253L441.061 98.7699L440.851 101.242C441.6 100.896 442.461 100.467 443.346 100.006C443.965 99.7092 444.56 99.3632 445.083 99.0253Z" fill="black"/>
<path d="M438.293 313.083C436.354 312.789 434.451 312.277 432.621 311.558C427.846 309.278 423.465 306.216 419.651 302.494C418.617 301.489 417.711 300.354 416.955 299.116C416.468 298.091 416.244 296.957 416.304 295.819C416.458 292.297 417.301 288.842 418.782 285.659C420.351 282.099 422.612 278.762 425.154 276.768C426.148 275.954 427.247 275.285 428.421 274.782C429.267 274.43 430.171 274.246 431.084 274.238C432.575 274.3 434.03 274.72 435.332 275.466C436.813 276.224 438.398 277.262 440.208 278.251C442.112 279.388 443.865 280.773 445.422 282.371C447.308 284.257 449.097 286.243 450.78 288.321C453.025 291.057 454.956 293.677 456.163 295.374C453.323 301.472 451.234 307.908 449.944 314.533H449.461C446.114 314.203 441.857 313.742 438.293 313.083Z" fill="white"/>
<path d="M437.866 315.522C435.736 315.188 433.648 314.619 431.639 313.824C430.159 313.134 428.719 312.358 427.326 311.5C426.626 311.08 425.926 310.627 425.218 310.149C424.204 309.465 423.19 308.74 422.217 307.99C420.713 306.836 419.286 305.581 417.944 304.232C416.769 303.077 415.739 301.776 414.879 300.36C414.164 298.959 413.823 297.39 413.889 295.811C414.051 291.937 414.976 288.136 416.609 284.637C417.69 282.159 419.088 279.839 420.769 277.74C421.27 277.109 421.807 276.509 422.378 275.944C422.796 275.54 423.231 275.12 423.673 274.798C424.846 273.839 426.146 273.057 427.535 272.474C428.661 272.01 429.862 271.767 431.075 271.758C432.03 271.762 432.979 271.909 433.892 272.194C434.723 272.455 435.53 272.789 436.305 273.191L436.418 273.249C436.571 273.323 436.724 273.414 436.868 273.496C437.593 273.875 438.309 274.32 439.025 274.716C439.741 275.111 440.554 275.622 441.35 276.059C443.604 277.414 445.667 279.077 447.481 281.003C450.449 284.06 453.217 287.314 455.768 290.743C456.388 291.567 456.943 292.317 457.426 292.984C457.096 293.578 456.621 294.385 456.171 295.407C454.964 293.71 453.033 291.089 450.788 288.353C449.105 286.276 447.316 284.29 445.429 282.404C443.872 280.806 442.12 279.421 440.216 278.284C438.405 277.295 436.82 276.257 435.34 275.499C434.038 274.753 432.582 274.332 431.092 274.271C430.178 274.278 429.275 274.463 428.428 274.815C427.255 275.318 426.155 275.986 425.162 276.801C422.619 278.795 420.334 282.132 418.789 285.692C417.309 288.867 416.463 292.313 416.303 295.827C416.244 296.965 416.468 298.099 416.955 299.123C417.711 300.362 418.616 301.497 419.65 302.502C423.465 306.224 427.845 309.286 432.62 311.566C434.451 312.285 436.353 312.797 438.293 313.091C441.857 313.75 446.113 314.211 449.46 314.508H449.943C449.774 315.332 449.613 316.156 449.46 316.98C448.278 316.873 446.974 316.749 445.614 316.601C443.056 316.329 440.328 315.967 437.866 315.522Z" fill="black"/>
<path d="M587.625 272.755L587.682 272.903C587.73 273.035 587.81 273.233 587.907 273.497C588.1 274.024 588.382 274.807 588.712 275.82C589.387 277.831 590.321 280.765 591.198 284.308C593.511 293.209 594.727 302.372 594.818 311.583C594.818 322.979 592.654 335.142 586.056 345.624C584.654 347.67 582.802 349.349 580.65 350.527C577.771 352.184 574.7 353.463 571.509 354.334C564.324 356.41 555.16 357.531 545.054 357.531C527.298 357.488 509.677 354.362 492.941 348.285C476.045 342.023 460.975 332.39 451.553 319.032C454.16 303.813 458.682 295.572 459.864 293.603H460.154L462.632 293.356C464.772 293.174 467.822 292.944 471.483 292.705C478.812 292.227 488.588 291.749 498.356 291.749C504.326 291.749 510.288 291.93 515.687 292.392C520.374 292.696 525.02 293.471 529.558 294.707C531.537 295.218 533.404 296.107 535.061 297.327C535.27 297.508 535.533 297.609 535.806 297.616C536.079 297.622 536.346 297.533 536.563 297.363C536.78 297.193 536.933 296.952 536.998 296.68C537.063 296.409 537.036 296.122 536.92 295.869H536.976L587.625 272.755Z" fill="white"/>
<path d="M540.058 359.888C525.721 359.387 511.515 356.923 497.817 352.562C497.012 352.315 496.28 352.068 495.515 351.804C494.373 351.414 493.238 351.01 492.112 350.593C474.781 344.149 459.124 334.195 449.292 320.046C449.199 319.914 449.133 319.764 449.097 319.606C449.061 319.448 449.056 319.284 449.083 319.123C449.203 318.39 449.332 317.681 449.461 316.989C449.614 316.165 449.774 315.341 449.943 314.517C451.234 307.892 453.323 301.456 456.163 295.358C456.654 294.336 457.088 293.529 457.418 292.936C457.885 292.112 458.166 291.708 458.182 291.683C458.282 291.535 458.413 291.411 458.564 291.32C458.716 291.229 458.885 291.173 459.059 291.156C459.059 291.156 478.667 289.236 498.356 289.236C504.125 289.236 509.885 289.409 515.196 289.829L517.658 290.052C518.857 290.175 520.072 290.307 521.174 290.455C524.238 290.828 527.27 291.442 530.242 292.293C531.65 292.714 533.018 293.266 534.329 293.941C535.129 294.345 535.885 294.837 536.582 295.408C536.73 295.527 536.846 295.683 536.92 295.861C537.035 296.114 537.063 296.401 536.998 296.672C536.933 296.944 536.779 297.185 536.563 297.355C536.346 297.525 536.079 297.614 535.806 297.608C535.533 297.601 535.27 297.5 535.061 297.319C533.404 296.099 531.537 295.21 529.558 294.699C525.019 293.463 520.373 292.688 515.687 292.384C510.288 291.922 504.326 291.741 498.356 291.741C488.588 291.741 478.812 292.219 471.482 292.697C467.821 292.936 464.772 293.166 462.632 293.348L460.154 293.562H459.864C458.681 295.531 454.16 303.772 451.553 318.991C460.974 332.349 476.077 341.982 492.941 348.244C509.677 354.321 527.298 357.447 545.054 357.49C555.16 357.49 564.324 356.369 571.509 354.293C574.704 353.432 577.781 352.161 580.665 350.51C582.818 349.333 584.67 347.653 586.072 345.607C592.67 335.126 594.834 322.963 594.834 311.567C594.74 302.356 593.521 293.193 591.205 284.292C590.304 280.724 589.395 277.815 588.719 275.804C588.381 274.791 588.1 274.008 587.915 273.48C587.818 273.217 587.738 273.019 587.689 272.887L587.633 272.739C587.541 272.503 587.522 272.244 587.578 271.996C587.634 271.749 587.763 271.525 587.947 271.354C588.048 271.257 588.165 271.179 588.293 271.124C588.442 271.058 588.602 271.023 588.764 271.021C588.926 271.02 589.087 271.051 589.236 271.114C589.386 271.177 589.523 271.27 589.637 271.388C589.751 271.506 589.841 271.645 589.902 271.799C589.902 271.799 590.964 274.469 592.316 278.886C594.114 284.947 595.459 291.14 596.339 297.41C596.995 302.116 597.334 306.863 597.353 311.616C597.353 311.921 597.353 312.226 597.353 312.531C597.24 323.977 594.939 336.255 588.22 347C586.613 349.372 584.482 351.323 582.001 352.694C577.978 355.108 572.603 356.921 566.336 358.149C559.354 359.443 552.27 360.066 545.175 360.011C544.322 360.011 543.461 360.011 542.592 360.011C541.723 360.011 540.87 359.921 540.058 359.888Z" fill="black"/>
<path d="M214.849 237.059C205.394 236.946 197.818 229.004 197.929 219.32C198.039 209.636 205.794 201.878 215.25 201.991C224.705 202.104 232.28 210.047 232.17 219.73C232.059 229.414 224.305 237.173 214.849 237.059Z" fill="white"/>
<path d="M206.884 211.2C209.097 208.938 210.852 206.251 212.047 203.293C213.243 200.334 213.856 197.163 213.852 193.962C213.854 193.634 213.981 193.321 214.206 193.088C214.432 192.856 214.739 192.726 215.059 192.726C215.379 192.726 215.686 192.856 215.912 193.088C216.137 193.321 216.264 193.634 216.266 193.962C216.26 197.166 216.872 200.339 218.066 203.301C219.26 206.262 221.012 208.954 223.223 211.221C225.433 213.488 228.059 215.286 230.949 216.513C233.839 217.74 236.937 218.37 240.066 218.369C240.385 218.371 240.691 218.501 240.918 218.732C241.145 218.963 241.272 219.278 241.272 219.605C241.272 219.933 241.145 220.248 240.919 220.479C240.693 220.711 240.386 220.841 240.066 220.841C233.76 220.839 227.711 223.401 223.248 227.964C218.786 232.526 216.274 238.717 216.266 245.175C216.266 245.503 216.139 245.817 215.912 246.049C215.686 246.281 215.379 246.411 215.059 246.411C214.9 246.413 214.743 246.381 214.596 246.319C214.45 246.257 214.317 246.165 214.206 246.048C213.98 245.817 213.852 245.503 213.852 245.175C213.843 238.718 211.333 232.529 206.872 227.966C202.411 223.404 196.365 220.841 190.06 220.841C189.74 220.841 189.433 220.711 189.207 220.479C188.982 220.246 188.855 219.933 188.853 219.605C188.853 219.278 188.981 218.963 189.207 218.731C189.433 218.499 189.74 218.369 190.06 218.369C193.187 218.369 196.284 217.735 199.171 216.505C202.058 215.274 204.68 213.472 206.884 211.2ZM215.059 237.108C216.33 232.991 218.55 229.248 221.531 226.196C224.513 223.144 228.168 220.872 232.189 219.572C228.168 218.271 224.513 215.997 221.531 212.944C218.55 209.89 216.33 206.146 215.059 202.029C213.788 206.145 211.569 209.888 208.589 212.941C205.609 215.995 201.956 218.269 197.937 219.572C201.955 220.874 205.609 223.146 208.589 226.198C211.569 229.251 213.788 232.992 215.059 237.108Z" fill="black"/>
<path d="M633.205 497.771C631.935 493.656 629.716 489.914 626.736 486.862C623.756 483.81 620.102 481.537 616.084 480.236C620.102 478.933 623.756 476.658 626.736 473.605C629.716 470.552 631.935 466.809 633.205 462.693C634.476 466.809 636.695 470.552 639.675 473.605C642.655 476.658 646.309 478.933 650.327 480.236C646.309 481.537 642.655 483.81 639.675 486.862C636.695 489.914 634.476 493.656 633.205 497.771Z" fill="white"/>
<path d="M659.056 479.363C659.283 479.594 659.41 479.908 659.41 480.236C659.408 480.563 659.281 480.877 659.056 481.109C658.945 481.225 658.812 481.317 658.665 481.379C658.519 481.441 658.362 481.473 658.203 481.472C655.079 481.472 651.985 482.102 649.099 483.327C646.212 484.551 643.589 486.346 641.38 488.609C639.171 490.872 637.418 493.558 636.223 496.514C635.027 499.47 634.412 502.639 634.412 505.839C634.412 506.166 634.284 506.481 634.058 506.713C633.832 506.944 633.525 507.075 633.205 507.075C632.885 507.075 632.578 506.944 632.351 506.713C632.125 506.481 631.998 506.166 631.998 505.839C631.998 502.638 631.382 499.469 630.186 496.512C628.99 493.555 627.237 490.869 625.026 488.606C622.816 486.343 620.193 484.549 617.305 483.325C614.418 482.1 611.323 481.471 608.198 481.472C607.878 481.47 607.572 481.34 607.345 481.109C607.125 480.874 607.001 480.562 606.999 480.236C607 479.91 607.124 479.597 607.345 479.363C607.572 479.132 607.878 479.002 608.198 479C611.323 479.001 614.418 478.372 617.305 477.148C620.193 475.924 622.816 474.129 625.026 471.866C627.237 469.603 628.99 466.917 630.186 463.96C631.382 461.003 631.998 457.834 631.998 454.634C631.997 454.471 632.027 454.31 632.087 454.159C632.148 454.009 632.237 453.872 632.349 453.757C632.461 453.642 632.595 453.551 632.742 453.489C632.888 453.428 633.046 453.396 633.205 453.397C633.363 453.396 633.521 453.428 633.668 453.489C633.815 453.551 633.948 453.642 634.06 453.757C634.173 453.872 634.262 454.009 634.322 454.159C634.382 454.31 634.413 454.471 634.412 454.634C634.412 457.833 635.027 461.002 636.223 463.958C637.418 466.914 639.171 469.601 641.38 471.863C643.589 474.126 646.212 475.921 649.099 477.145C651.985 478.37 655.079 479 658.203 479C658.362 478.999 658.519 479.031 658.665 479.093C658.812 479.155 658.945 479.247 659.056 479.363ZM633.205 462.693C631.934 466.809 629.715 470.552 626.735 473.605C623.755 476.658 620.102 478.933 616.083 480.236C620.101 481.537 623.755 483.81 626.735 486.862C629.715 489.914 631.934 493.656 633.205 497.771C634.475 493.656 636.694 489.914 639.674 486.862C642.655 483.81 646.308 481.537 650.326 480.236C646.308 478.933 642.654 476.658 639.674 473.605C636.694 470.552 634.475 466.809 633.205 462.693Z" fill="black"/>
<path d="M224.875 730.18C224.875 725.366 226.269 720.66 228.881 716.657C231.492 712.654 235.204 709.534 239.547 707.692C243.89 705.849 248.669 705.367 253.279 706.306C257.89 707.246 262.125 709.564 265.449 712.968C268.773 716.372 271.036 720.71 271.953 725.432C272.871 730.153 272.4 735.048 270.601 739.496C268.802 743.943 265.756 747.745 261.847 750.42C257.939 753.095 253.343 754.522 248.643 754.522C245.518 754.533 242.423 753.911 239.535 752.691C236.646 751.472 234.022 749.679 231.813 747.417C229.603 745.154 227.853 742.467 226.662 739.508C225.472 736.55 224.864 733.38 224.875 730.18Z" fill="#EC744A"/>
<path d="M623.18 551.902C623.181 554.938 622.304 557.905 620.658 560.43C619.013 562.954 616.673 564.922 613.935 566.084C611.197 567.247 608.184 567.551 605.277 566.959C602.371 566.368 599.7 564.906 597.605 562.76C595.509 560.614 594.082 557.879 593.504 554.902C592.926 551.925 593.224 548.839 594.359 546.035C595.494 543.231 597.415 540.835 599.88 539.15C602.345 537.464 605.243 536.566 608.206 536.567C612.177 536.567 615.986 538.183 618.794 541.059C621.602 543.935 623.18 547.835 623.18 551.902ZM598.237 551.902C598.236 553.915 598.817 555.884 599.908 557.558C600.999 559.233 602.55 560.539 604.366 561.31C606.181 562.082 608.18 562.284 610.108 561.893C612.036 561.501 613.807 560.532 615.198 559.109C616.588 557.687 617.535 555.873 617.919 553.899C618.303 551.925 618.107 549.878 617.355 548.018C616.603 546.158 615.33 544.568 613.695 543.449C612.061 542.331 610.14 541.734 608.174 541.734C605.545 541.74 603.026 542.815 601.169 544.721C599.312 546.627 598.27 549.21 598.27 551.902H598.237Z" fill="#2A6049"/>
<path d="M673.186 438.665C670.224 438.665 667.329 437.765 664.867 436.08C662.405 434.395 660.485 432 659.352 429.198C658.219 426.396 657.922 423.312 658.5 420.338C659.078 417.363 660.504 414.63 662.598 412.486C664.692 410.341 667.36 408.881 670.265 408.289C673.169 407.697 676.18 408.001 678.916 409.162C681.652 410.322 683.99 412.288 685.636 414.81C687.281 417.332 688.159 420.296 688.159 423.329C688.157 427.396 686.579 431.295 683.771 434.171C680.964 437.046 677.156 438.662 673.186 438.665ZM673.186 413.12C671.22 413.118 669.298 413.714 667.662 414.831C666.027 415.949 664.752 417.538 663.999 419.398C663.246 421.258 663.048 423.305 663.432 425.28C663.815 427.255 664.761 429.069 666.151 430.492C667.542 431.916 669.313 432.886 671.241 433.278C673.169 433.67 675.168 433.468 676.984 432.697C678.8 431.926 680.352 430.62 681.443 428.945C682.534 427.27 683.116 425.302 683.114 423.288C683.106 420.598 682.056 418.021 680.195 416.122C678.333 414.224 675.813 413.159 673.186 413.161V413.12Z" fill="#2A6049"/>
<path d="M255.691 123.606C255.389 123.701 255.135 123.915 254.984 124.2C254.834 124.485 254.799 124.819 254.886 125.13C257.365 133.667 260.213 142.435 261.774 147.091L229.172 124.883C228.974 124.747 228.742 124.676 228.504 124.677H27.7988C22.464 124.677 17.3477 122.507 13.5755 118.643C9.80319 114.78 7.68402 109.54 7.68402 104.077V51.6685C7.68402 46.2049 9.80319 40.965 13.5755 37.1017C17.3477 33.2383 22.464 31.0679 27.7988 31.0679H249.254C254.589 31.0679 259.705 33.2383 263.478 37.1017C267.25 40.965 269.369 46.2049 269.369 51.6685V104.052C269.377 108.368 268.06 112.577 265.606 116.086C263.152 119.594 259.684 122.225 255.691 123.606ZM117.752 95.5891H213.329C213.649 95.5891 213.956 95.4589 214.183 95.2271C214.409 94.9953 214.536 94.6809 214.536 94.3531C214.536 94.0253 214.409 93.7109 214.183 93.4791C213.956 93.2473 213.649 93.117 213.329 93.117H117.752C117.432 93.117 117.125 93.2473 116.899 93.4791C116.672 93.7109 116.545 94.0253 116.545 94.3531C116.545 94.6809 116.672 94.9953 116.899 95.2271C117.125 95.4589 117.432 95.5891 117.752 95.5891ZM55.2595 75.8125H213.329C213.649 75.8125 213.956 75.6823 214.183 75.4505C214.409 75.2187 214.536 74.9043 214.536 74.5765C214.536 74.2486 214.409 73.9342 214.183 73.7024C213.956 73.4706 213.649 73.3404 213.329 73.3404H55.2595C54.9394 73.3404 54.6324 73.4706 54.4061 73.7024C54.1797 73.9342 54.0526 74.2486 54.0526 74.5765C54.0526 74.9043 54.1797 75.2187 54.4061 75.4505C54.6324 75.6823 54.9394 75.8125 55.2595 75.8125ZM55.2595 55.9782H190.825C191.145 55.9782 191.452 55.848 191.678 55.6162C191.905 55.3844 192.032 55.07 192.032 54.7421C192.032 54.4143 191.905 54.0999 191.678 53.8681C191.452 53.6363 191.145 53.5061 190.825 53.5061H55.2595C54.9394 53.5061 54.6324 53.6363 54.4061 53.8681C54.1797 54.0999 54.0526 54.4143 54.0526 54.7421C54.0526 55.07 54.1797 55.3844 54.4061 55.6162C54.6324 55.848 54.9394 55.9782 55.2595 55.9782Z" fill="white"/>
<path d="M261.411 123.458C260.188 124.26 258.892 124.939 257.541 125.485C257.774 126.309 258.008 127.084 258.249 127.875C259.754 132.901 261.314 137.813 262.57 141.694C263.374 144.083 264.01 146.086 264.485 147.462C264.718 148.171 264.903 148.723 265.032 149.11L265.225 149.687C265.305 149.931 265.309 150.195 265.236 150.442C265.164 150.689 265.018 150.907 264.819 151.066C264.62 151.224 264.378 151.315 264.127 151.326C263.875 151.338 263.626 151.269 263.414 151.129L239.277 134.69L228.125 127.1H27.782C21.8071 127.1 16.0769 124.669 11.8519 120.342C7.62701 116.015 5.25345 110.147 5.25345 104.028V51.6689C5.25345 45.5497 7.62701 39.681 11.8519 35.354C16.0769 31.0271 21.8071 28.5962 27.782 28.5962H249.254C255.229 28.5962 260.959 31.0271 265.184 35.354C269.409 39.681 271.782 45.5497 271.782 51.6689V104.052C271.784 107.919 270.835 111.723 269.023 115.115C267.21 118.507 264.592 121.376 261.411 123.458ZM269.368 51.6689C269.368 46.2053 267.249 40.9654 263.477 37.1021C259.705 33.2387 254.588 31.0683 249.254 31.0683H27.782C22.4472 31.0683 17.331 33.2387 13.5587 37.1021C9.7865 40.9654 7.66721 46.2053 7.66721 51.6689V104.052C7.66721 109.516 9.7865 114.756 13.5587 118.619C17.331 122.482 22.4472 124.653 27.782 124.653H228.519C228.757 124.651 228.99 124.723 229.187 124.859L261.789 147.066C260.228 142.386 257.38 133.643 254.902 125.106C254.814 124.795 254.849 124.46 255 124.175C255.15 123.89 255.404 123.677 255.707 123.582C259.693 122.203 263.156 119.579 265.61 116.078C268.063 112.578 269.384 108.378 269.385 104.069L269.368 51.6689Z" fill="black"/>
<path d="M55.2589 53.4731H190.824C191.144 53.4731 191.451 53.6034 191.678 53.8352C191.904 54.067 192.031 54.3814 192.031 54.7092C192.031 55.037 191.904 55.3514 191.678 55.5832C191.451 55.815 191.144 55.9452 190.824 55.9452H55.2589C54.9388 55.9452 54.6318 55.815 54.4055 55.5832C54.1791 55.3514 54.052 55.037 54.052 54.7092C54.052 54.3814 54.1791 54.067 54.4055 53.8352C54.6318 53.6034 54.9388 53.4731 55.2589 53.4731Z" fill="black"/>
<path d="M55.2594 73.3406H213.329C213.649 73.3406 213.956 73.4708 214.183 73.7026C214.409 73.9344 214.536 74.2488 214.536 74.5766C214.536 74.9044 214.409 75.2188 214.183 75.4506C213.956 75.6824 213.649 75.8127 213.329 75.8127H55.2594C54.9393 75.8127 54.6323 75.6824 54.406 75.4506C54.1796 75.2188 54.0525 74.9044 54.0525 74.5766C54.0525 74.2488 54.1796 73.9344 54.406 73.7026C54.6323 73.4708 54.9393 73.3406 55.2594 73.3406Z" fill="black"/>
<path d="M117.752 93.1174H213.329C213.649 93.1174 213.956 93.2477 214.183 93.4795C214.409 93.7113 214.536 94.0257 214.536 94.3535C214.536 94.6813 214.409 94.9957 214.183 95.2275C213.956 95.4593 213.649 95.5895 213.329 95.5895H117.752C117.432 95.5895 117.125 95.4593 116.899 95.2275C116.672 94.9957 116.545 94.6813 116.545 94.3535C116.545 94.0257 116.672 93.7113 116.899 93.4795C117.125 93.2477 117.432 93.1174 117.752 93.1174Z" fill="black"/>
</svg>
