<svg width="90" height="90" viewBox="0 0 90 90" fill="none" xmlns="http://www.w3.org/2000/svg">
<path d="M88.7761 77.8109L71.249 60.2874C70.458 59.4964 69.3858 59.0569 68.2608 59.0569H65.3955C70.2471 52.8519 73.1299 45.049 73.1299 36.5588C73.1299 16.3634 56.763 0 36.5658 0C16.3687 0 0 16.3634 0 36.5588C0 56.7542 16.3669 73.1176 36.5658 73.1176C45.056 73.1176 52.8624 70.2348 59.0675 65.3832V68.2485C59.0675 69.3735 59.5069 70.4457 60.2979 71.2367L77.825 88.7603C79.4773 90.4126 82.1492 90.4126 83.7839 88.7603L88.7585 83.7857C90.4108 82.1333 90.4108 79.4632 88.7761 77.8109ZM36.5658 61.8676C22.5843 61.8676 11.2535 50.5579 11.2535 36.5588C11.2535 22.579 22.5649 11.2499 36.5658 11.2499C50.5474 11.2499 61.8782 22.5596 61.8782 36.5588C61.8782 50.5386 50.5667 61.8676 36.5658 61.8676ZM36.5693 19.6874C29.401 19.6874 23.5897 25.4969 23.5897 32.6653C23.5897 38.459 32.0729 49.0216 35.3231 52.8554C35.4755 53.0378 35.6661 53.1845 35.8815 53.2852C36.0968 53.3858 36.3316 53.438 36.5693 53.438C36.807 53.438 37.0419 53.3858 37.2572 53.2852C37.4726 53.1845 37.6632 53.0378 37.8156 52.8554C41.0658 49.0216 49.549 38.4607 49.549 32.6653C49.549 25.4969 43.7377 19.6874 36.5693 19.6874ZM36.5693 36.5623C34.2385 36.5623 32.3506 34.6727 32.3506 32.3436C32.3506 30.0127 34.2402 28.1248 36.5693 28.1248C38.8984 28.1248 40.7881 30.0127 40.7881 32.3436C40.7881 34.6727 38.8984 36.5623 36.5693 36.5623Z" fill="black"/>
</svg>
