<svg width="32" height="32" viewBox="0 0 32 32" fill="none" xmlns="http://www.w3.org/2000/svg">
<path fill-rule="evenodd" clip-rule="evenodd" d="M22.2119 2.66675C26.6519 2.66675 29.9999 6.28942 29.9999 11.0934V20.2507C29.9999 22.7094 29.1306 24.9307 27.5506 26.5067C26.1333 27.9187 24.2946 28.6667 22.2333 28.6667H9.09592C7.03859 28.6667 5.20125 27.9201 3.78259 26.5067C2.20259 24.9307 1.33325 22.7094 1.33325 20.2507V11.0934C1.33325 6.28942 4.68125 2.66675 9.12125 2.66675H22.2119ZM22.2119 4.66675H9.12125C5.76792 4.66675 3.33325 7.36942 3.33325 11.0934V20.2507C3.33325 22.1747 3.99459 23.8934 5.19458 25.0894C6.22925 26.1227 7.57992 26.6667 9.09992 26.6667H22.2119C22.2146 26.6641 22.2253 26.6667 22.2333 26.6667C23.7546 26.6667 25.1039 26.1227 26.1386 25.0894C27.3399 23.8934 27.9999 22.1747 27.9999 20.2507V11.0934C27.9999 7.36942 25.5653 4.66675 22.2119 4.66675ZM24.3132 10.8385C24.6612 11.2665 24.5959 11.8958 24.1679 12.2451L18.2426 17.0611C17.4933 17.6558 16.5973 17.9531 15.7026 17.9531C14.8106 17.9531 13.9213 17.6585 13.1773 17.0691L7.19725 12.2478C6.76659 11.9011 6.69992 11.2705 7.04525 10.8411C7.39325 10.4131 8.02259 10.3451 8.45192 10.6905L14.4266 15.5065C15.1773 16.1011 16.2346 16.1011 16.9906 15.5011L22.9052 10.6931C23.3346 10.3425 23.9639 10.4091 24.3132 10.8385Z" fill="white"/>
</svg>
