<svg width="32" height="32" viewBox="0 0 32 32" fill="none" xmlns="http://www.w3.org/2000/svg">
<path fill-rule="evenodd" clip-rule="evenodd" d="M16.3328 2.66675C22.3981 2.66675 27.3328 7.63875 27.3328 13.7507C27.3328 21.2641 18.7248 28.6667 16.3328 28.6667C13.9408 28.6667 5.33276 21.2641 5.33276 13.7507C5.33276 7.63875 10.2674 2.66675 16.3328 2.66675ZM16.3328 4.66675C11.3701 4.66675 7.33276 8.74275 7.33276 13.7507C7.33276 20.1227 14.8314 26.3307 16.3328 26.6614C17.8341 26.3294 25.3328 20.1214 25.3328 13.7507C25.3328 8.74275 21.2954 4.66675 16.3328 4.66675ZM16.3341 9.33342C18.7234 9.33342 20.6674 11.2774 20.6674 13.6681C20.6674 16.0574 18.7234 18.0001 16.3341 18.0001C13.9448 18.0001 12.0008 16.0574 12.0008 13.6681C12.0008 11.2774 13.9448 9.33342 16.3341 9.33342ZM16.3341 11.3334C15.0474 11.3334 14.0008 12.3801 14.0008 13.6681C14.0008 14.9547 15.0474 16.0001 16.3341 16.0001C17.6208 16.0001 18.6674 14.9547 18.6674 13.6681C18.6674 12.3801 17.6208 11.3334 16.3341 11.3334Z" fill="white"/>
</svg>
