<svg width="84" height="84" viewBox="0 0 84 84" fill="none" xmlns="http://www.w3.org/2000/svg">
<path d="M42 56C45.4417 56 49.161 55.4027 53.158 54.208C57.1527 53.011 62.6792 50.8667 69.7375 47.775C69.8542 47.1333 69.9277 46.5068 69.958 45.8955C69.986 45.2818 70 44.6542 70 44.0125C70 43.3708 69.7527 42.8458 69.258 42.4375C68.761 42.0292 68.1917 41.9125 67.55 42.0875C66.7333 42.3792 65.8292 42.6848 64.8375 43.0045C63.8458 43.3265 62.5917 43.8083 61.075 44.45C57.05 46.1417 53.6083 47.3223 50.75 47.992C47.8917 48.664 44.975 49 42 49C38.9667 49 35.9917 48.65 33.075 47.95C30.1583 47.25 26.6 46.0542 22.4 44.3625C20.8833 43.7208 19.7167 43.2542 18.9 42.9625L16.45 42.0875C15.8083 41.8542 15.2402 41.9557 14.7455 42.392C14.2485 42.8307 14 43.3708 14 44.0125C14 44.6542 14.0152 45.2818 14.0455 45.8955C14.0735 46.5068 14.1458 47.1333 14.2625 47.775C20.1542 50.575 25.389 52.6458 29.967 53.9875C34.5473 55.3292 38.5583 56 42 56ZM42 70C47.4833 70 52.3542 68.8042 56.6125 66.4125C60.8708 64.0208 64.1958 60.8125 66.5875 56.7875C61.4542 58.9458 56.9333 60.5208 53.025 61.5125C49.1167 62.5042 45.4417 63 42 63C38.6167 63 34.8542 62.489 30.7125 61.467C26.5708 60.4473 22.1083 58.9167 17.325 56.875C19.6583 60.9 22.9682 64.0943 27.2545 66.458C31.5432 68.8193 36.4583 70 42 70ZM42 35C38.15 35 34.8542 33.6292 32.1125 30.8875C29.3708 28.1458 28 24.85 28 21C28 17.15 29.3708 13.8542 32.1125 11.1125C34.8542 8.37083 38.15 7 42 7C45.85 7 49.1458 8.37083 51.8875 11.1125C54.6292 13.8542 56 17.15 56 21C56 24.85 54.6292 28.1458 51.8875 30.8875C49.1458 33.6292 45.85 35 42 35ZM42 28C43.925 28 45.5735 27.314 46.9455 25.942C48.3152 24.5723 49 22.925 49 21C49 19.075 48.3152 17.4277 46.9455 16.058C45.5735 14.686 43.925 14 42 14C40.075 14 38.4277 14.686 37.058 16.058C35.686 17.4277 35 19.075 35 21C35 22.925 35.686 24.5723 37.058 25.942C38.4277 27.314 40.075 28 42 28ZM42 77C31.675 77 23.2598 73.9375 16.7545 67.8125C10.2515 61.6875 7 53.7542 7 44.0125C7 40.9792 8.211 38.5583 10.633 36.75C13.0527 34.9417 15.6917 34.5042 18.55 35.4375C19.4833 35.7292 20.461 36.064 21.483 36.442C22.5027 36.8223 23.7125 37.3042 25.1125 37.8875C28.8458 39.4042 31.9375 40.4693 34.3875 41.083C36.8375 41.6943 39.375 42 42 42C44.5083 42 46.9875 41.7083 49.4375 41.125C51.8875 40.5417 54.8917 39.4917 58.45 37.975C60.1417 37.3333 61.4985 36.8083 62.5205 36.4C63.5402 35.9917 64.5458 35.6417 65.5375 35.35C68.3958 34.5333 71.0208 35.0292 73.4125 36.8375C75.8042 38.6458 77 41.0375 77 44.0125C77 48.6208 76.0958 52.9223 74.2875 56.917C72.4792 60.914 70 64.4 66.85 67.375C63.7 70.35 59.9958 72.6973 55.7375 74.417C51.4792 76.139 46.9 77 42 77Z" fill="white"/>
</svg>
