<svg width="90" height="90" viewBox="0 0 90 90" fill="none" xmlns="http://www.w3.org/2000/svg">
<path d="M66.6387 37.8633C68.6953 32.1328 74.6192 15.5566 74.6192 10.248C74.6192 5.57227 71.8594 1.65234 66.9375 1.65234C59.0977 1.65234 52.0664 24.8027 49.8692 30.3223C48.1641 25.3125 40.1836 0 33.1524 0C27.6856 0 25.1192 4.02539 25.1192 9.08789C25.1192 15.293 31.1309 31.377 33.3106 37.5645C32.2031 37.1602 31.0078 36.8086 29.7949 36.8086C25.6817 36.8086 21.3047 41.9238 21.3047 46.0547C21.3047 47.6191 22.166 49.8164 22.711 51.2754C16.2246 53.0332 13.7285 57.3574 13.7285 63.8789C13.711 76.5703 25.7344 90 42.6446 90C63.3867 90 76.2891 74.4258 76.2891 54.334C76.2891 46.7578 75.0762 39.9199 66.6387 37.8633ZM60.416 18.9844C61.1192 16.8223 64.125 7.68164 66.9375 7.68164C68.4492 7.68164 68.8535 9.24609 68.8535 10.4941C68.8535 13.8516 62.0684 32.3965 60.5742 36.5098L54.5977 35.4551L60.416 18.9844ZM30.6387 8.49023C30.6387 6.39844 33.1875 0.457031 38.7774 16.7695L44.8594 34.4004C42.1172 34.1719 39.9903 33.873 38.6367 34.6465C36.7207 29.584 30.6387 13.6055 30.6387 8.49023ZM30.2344 42.8906C35.3848 42.8906 42.0293 59.5195 42.0293 61.7695C42.0293 62.666 41.168 63.7734 40.166 63.7734C36.4922 63.7734 26.6485 50.2559 26.6485 46.5996C26.666 45.2461 28.8809 42.8906 30.2344 42.8906ZM62.6309 75.6387C57.5156 81.2637 50.9766 84.1816 43.3477 84.1816C32.9063 84.1816 24.6621 78.4512 20.6895 68.6602C17.6836 61.0312 21.3574 56.6543 24.3106 56.6543C26.3145 56.6543 33.8555 67.2539 33.8555 69.5039C33.8555 70.3652 32.502 70.9629 31.7988 70.9629C28.9688 70.9629 27.8613 68.2383 22.8164 61.9277C17.5957 67.1484 26.4199 77.2031 33.0645 77.2031C37.6524 77.2031 40.6406 72.9492 39.7442 69.8203C40.3946 69.8203 41.2031 69.873 41.8008 69.7148C41.9942 74.4785 43.4004 80.1562 49.1309 80.5605C49.1309 80.4023 49.4824 79.3125 49.4824 79.2598C49.4824 76.2012 47.6192 73.5293 47.6192 70.418C47.6192 65.4434 51.4336 60.627 55.3008 57.8145C56.7071 56.7598 58.4121 56.1094 60.0645 55.5117C61.7696 54.8613 63.5801 54.1055 64.8809 52.8047C64.6875 50.8359 63.8789 49.0957 61.9102 49.0957C57.041 49.0957 40.711 49.7988 40.711 42.1172C40.711 40.9395 40.7285 39.8145 43.7696 39.8145C49.4473 39.8145 63.8613 41.2207 68.0801 44.9297C71.2617 47.7598 72.3516 64.8281 62.6309 75.6387ZM45.2988 53.4902C47.0039 54.0352 48.7617 54.1934 50.5196 54.5449C49.2188 55.4941 48.0586 56.6543 46.9512 57.9023C46.459 56.4082 45.8613 54.9492 45.2988 53.4902Z" fill="black"/>
</svg>
