<svg width="130" height="130" viewBox="0 0 130 130" fill="none" xmlns="http://www.w3.org/2000/svg">
<g clip-path="url(#clip0_1_732)">
<path d="M38.271 76.4784C33.2429 71.1027 24.5969 73.1684 22.2079 79.7967C21.2504 78.7442 18.7934 76.0366 18.7243 75.9672C18.1784 75.4213 17.8775 74.6952 17.8775 73.9228V43.3299C17.8775 38.4011 13.8676 34.3911 8.93877 34.3911C4.00994 34.3911 0 38.4011 0 43.3299V86.6699C0 89.3994 1.06311 91.9654 2.99279 93.8956C3.06719 93.97 2.00256 92.9909 19.0084 108.565C19.9568 109.532 20.4786 110.808 20.4786 112.164V127.461C20.4786 128.863 21.6155 130 23.0176 130H53.5275C54.9296 130 56.0666 128.863 56.0666 127.461V96.5052C56.0666 95.8611 55.8218 95.241 55.3818 94.7708L38.271 76.4784ZM50.9884 124.922H25.5567V112.164C25.5567 109.435 24.4941 106.869 22.5639 104.939C22.4791 104.854 23.0755 105.405 6.54824 90.2693C5.5999 89.3024 5.07812 88.0265 5.07812 86.6702V43.3299C5.07812 41.2011 6.81002 39.4692 8.93877 39.4692C11.0675 39.4692 12.7992 41.2011 12.7992 43.3299V73.9228C12.7992 76.0114 13.5987 77.9762 15.0503 79.4711C17.3926 82.0486 29.216 95.0592 31.5717 97.6516C32.5165 98.6908 34.1222 98.7647 35.1584 97.823C36.1961 96.88 36.273 95.2743 35.3298 94.2363L27.61 85.7411C26.1643 83.7995 26.4946 81.0207 28.4449 79.4836C30.3098 78.0132 32.9398 78.2123 34.5625 79.947L50.9884 97.5074V124.922Z" fill="black"/>
<path d="M121.061 34.3911C116.133 34.3911 112.123 38.4011 112.123 43.3299V73.9228C112.123 74.6952 111.822 75.4211 111.276 75.9672C111.211 76.0328 108.443 79.0817 107.793 79.7967C105.404 73.1689 96.7577 71.1029 91.7294 76.4784L74.6184 94.7708C74.1784 95.241 73.9336 95.8611 73.9336 96.5052V127.461C73.9336 128.863 75.0706 130 76.4727 130H106.983C108.385 130 109.522 128.863 109.522 127.461V112.164C109.522 110.808 110.043 109.532 110.992 108.565C127.81 93.163 126.932 93.9707 127.007 93.8958C128.937 91.9656 130 89.3996 130 86.6702V43.3299C130 38.4011 125.99 34.3911 121.061 34.3911ZM124.922 86.6702C124.922 88.0265 124.4 89.3024 123.452 90.2693C106.852 105.471 107.517 104.858 107.436 104.939C105.506 106.869 104.443 109.435 104.443 112.164V124.922H79.0117V97.5076L95.4377 79.9472C97.0601 78.2133 99.6896 78.0137 101.555 79.4838C103.503 81.0187 103.838 83.7967 102.39 85.7414L94.6701 94.2366C93.7269 95.2745 93.8038 96.8802 94.8415 97.8232C95.879 98.766 97.4849 98.6901 98.4282 97.6519C100.817 95.0227 112.622 82.0328 114.95 79.4714C116.401 77.9764 117.201 76.0114 117.201 73.923V43.3299C117.201 41.2011 118.933 39.4692 121.061 39.4692C123.19 39.4692 124.922 41.2014 124.922 43.3299V86.6702Z" fill="black"/>
<path d="M86.1604 23.3599H80.2967C78.8946 23.3599 77.7577 24.4969 77.7577 25.8989V28.4484C77.7577 34.6138 73.3613 39.7706 67.5392 40.9513V28.438H70.2689C71.671 28.438 72.808 27.301 72.808 25.8989C72.808 24.4969 71.671 23.3599 70.2689 23.3599H59.9863C58.5842 23.3599 57.4472 24.4969 57.4472 25.8989C57.4472 27.301 58.5842 28.438 59.9863 28.438H62.4611V40.9513C56.639 39.7708 52.2426 34.6138 52.2426 28.4484V25.8989C52.2426 24.4969 51.1056 23.3599 49.7036 23.3599H43.8398C42.4378 23.3599 41.3008 24.4969 41.3008 25.8989C41.3008 27.301 42.4378 28.438 43.8398 28.438H47.1645V28.4484C47.1645 37.4207 53.8252 44.8634 62.4611 46.1V51.4036H59.9863C58.5842 51.4036 57.4472 52.5403 57.4472 53.9426C57.4472 55.3447 58.5842 56.4817 59.9863 56.4817H70.2689C71.671 56.4817 72.808 55.3447 72.808 53.9426C72.808 52.5403 71.671 51.4036 70.2689 51.4036H67.5392V46.1C76.1751 44.8634 82.8358 37.4204 82.8358 28.4484L86.1604 28.438C87.5625 28.438 88.6995 27.301 88.6995 25.8989C88.6995 24.4966 87.5625 23.3599 86.1604 23.3599Z" fill="black"/>
<path d="M101.333 36.3337C101.333 16.299 85.0342 0 64.9997 0C44.9653 0 28.666 16.299 28.666 36.3337C28.666 56.3682 44.965 72.6675 64.9997 72.6675C85.0345 72.6675 101.333 56.3682 101.333 36.3337ZM64.9997 67.5891C47.7654 67.5891 33.7441 53.5679 33.7441 36.3335C33.7441 19.0993 47.7654 5.07812 64.9997 5.07812C82.2341 5.07812 96.2553 19.0993 96.2553 36.3337C96.2553 53.5681 82.2341 67.5891 64.9997 67.5891Z" fill="black"/>
</g>
<defs>
<clipPath id="clip0_1_732">
<rect width="130" height="130" fill="white"/>
</clipPath>
</defs>
</svg>
