<svg width="48" height="48" viewBox="0 0 48 48" fill="none" xmlns="http://www.w3.org/2000/svg">
<path fill-rule="evenodd" clip-rule="evenodd" d="M8.71882 10.1216C8.72282 10.1216 8.62282 10.2256 8.49682 10.3496C8.01282 10.8196 7.01082 11.7976 7.00072 13.8436C6.98482 16.7056 8.86682 22.0196 17.9288 31.0796C26.9488 40.0956 32.2548 41.9996 35.1228 41.9996H35.1648C37.2108 41.9896 38.1868 40.9856 38.6588 40.5036C38.8028 40.3556 38.9188 40.2476 39.0008 40.1796C40.9928 38.1756 42.0128 36.6836 42.0029 35.7276C41.9888 34.7516 40.7748 33.5976 39.0968 32.0016C38.5628 31.4936 37.9828 30.9416 37.3708 30.3296C35.7848 28.7476 34.9988 29.0176 33.2708 29.6256C30.8808 30.4636 27.6008 31.6036 22.5048 26.5056C17.4008 21.4056 18.5428 18.1296 19.3788 15.7396C19.9828 14.0116 20.2588 13.2236 18.6708 11.6356C18.0488 11.0156 17.4908 10.4276 16.9768 9.88763C15.3908 8.21963 14.2468 7.01363 13.2768 6.99963H13.2608C12.3028 6.99963 10.8148 8.02363 8.70882 10.1296C8.71482 10.1236 8.71682 10.1216 8.71882 10.1216ZM35.1248 44.9996C30.1408 44.9996 23.6428 41.0316 15.8088 33.2016C7.94482 25.3396 3.97082 18.8216 4.00065 13.8276C4.01882 10.5276 5.74882 8.83763 6.39882 8.20363C6.43282 8.16163 6.54882 8.04763 6.58882 8.00763C9.45682 5.13763 11.3908 3.97763 13.3148 3.99932C15.5488 4.02963 17.1388 5.70163 19.1508 7.81963C19.6488 8.34363 20.1888 8.91363 20.7908 9.51363C23.7108 12.4336 22.8788 14.8156 22.2108 16.7276C21.4828 18.8136 20.8528 20.6136 24.6248 24.3856C28.4008 28.1576 30.2008 27.5276 32.2788 26.7936C34.1928 26.1256 36.5688 25.2896 39.4928 28.2096C40.0848 28.8016 40.6468 29.3356 41.1648 29.8296C43.2928 31.8516 44.9728 33.4496 45.0012 35.6896C45.0248 37.5996 43.8648 39.5456 41.0008 42.4116L39.7328 41.5516L40.8048 42.5996C40.1708 43.2496 38.4828 44.9816 35.1808 44.9996H35.1248Z" fill="#1A1A1A"/>
</svg>
