<svg width="200" height="201" viewBox="0 0 200 201" fill="none" xmlns="http://www.w3.org/2000/svg">
<path d="M178.271 129.306H169.249C167.091 129.306 165.245 131.19 165.245 133.348V137.27C165.245 146.756 158.604 154.691 149.619 156.507V137.119H153.82C155.978 137.119 157.727 135.369 157.727 133.212C157.727 131.055 155.978 129.306 153.82 129.306H138C135.843 129.306 134.093 131.055 134.093 133.212C134.093 135.369 135.843 137.119 138 137.119H141.806V156.507C132.821 154.69 126.18 146.756 126.18 137.27V133.347C126.18 131.19 124.336 129.305 122.179 129.305H113.157C111 129.305 109.251 131.055 109.251 133.212C109.251 135.369 111 137.118 113.157 137.118H118.367V137.27C118.367 151.075 128.524 162.526 141.806 164.429V172.668H138C135.843 172.668 134.093 174.417 134.093 176.574C134.093 178.732 135.843 180.481 138 180.481H153.82C155.978 180.481 157.727 178.732 157.727 176.574C157.727 174.417 155.978 172.668 153.82 172.668H149.619V164.429C162.901 162.526 173.155 151.075 173.155 137.27L178.27 137.254C180.427 137.254 182.177 135.437 182.177 133.28C182.177 131.122 180.428 129.306 178.271 129.306Z" fill="white"/>
<path d="M76.7324 79.5935C74.431 81.8941 70.6882 81.8941 68.3888 79.5935C66.8629 78.0684 64.3901 78.0684 62.8638 79.5935C61.3384 81.119 61.3384 83.5926 62.8638 85.1185C68.2095 90.4646 76.9093 90.4658 82.2566 85.1185C83.7825 83.593 83.7825 81.1198 82.257 79.5939C80.7319 78.0688 78.2579 78.0684 76.7324 79.5935Z" fill="white"/>
<path d="M58.8313 66.6485C60.9888 66.6485 62.7378 64.8995 62.7378 62.742C62.7378 60.5845 60.9888 58.8354 58.8313 58.8354C56.6738 58.8354 54.9248 60.5845 54.9248 62.742C54.9248 64.8995 56.6738 66.6485 58.8313 66.6485Z" fill="white"/>
<path d="M86.2903 66.6485C88.4478 66.6485 90.1968 64.8995 90.1968 62.742C90.1968 60.5845 88.4478 58.8354 86.2903 58.8354C84.1328 58.8354 82.3838 60.5845 82.3838 62.742C82.3838 64.8995 84.1328 66.6485 86.2903 66.6485Z" fill="white"/>
<path d="M145.665 91.3934C138.523 91.3934 131.65 92.7817 125.399 95.2983V52.9372C125.399 23.4891 101.636 0 72.4874 0C43.2979 0 19.5326 23.7473 19.5326 52.9372V129.767C7.42238 138.323 0 152.183 0 167.277V196.107C0 198.264 1.76028 200.014 3.91746 200.014H145.715C175.661 200.014 200 175.65 200 145.704C200 115.757 175.612 91.3934 145.665 91.3934ZM72.5092 7.81303C97.302 7.81303 117.586 27.8437 117.586 52.9372V99.2017C108.991 104.541 101.672 112.508 97.0574 121.493H88.2869V106.334C100.788 100.405 109.773 87.4919 109.773 72.5495V47.0536C109.773 44.8964 108.041 43.1471 105.884 43.1471C96.8422 43.1471 88.1318 39.8594 81.3419 33.8898L75.1352 28.4297C73.6539 27.1276 71.4365 27.1335 69.963 28.4441L63.9899 33.6668C57.1758 39.7238 48.4037 42.9717 39.2871 42.9717H39.2195C37.0623 42.9717 35.1587 44.8964 35.1587 47.0536V72.5495C35.1587 87.4919 44.1436 100.405 57.0351 106.334V121.493H45.6914C39.3656 121.493 33.205 122.901 27.3452 125.398V52.9372C27.3456 28.0554 47.6279 7.81303 72.5092 7.81303ZM72.4655 101.984C56.2355 101.984 42.9717 88.7795 42.9717 72.5491V50.7964C52.738 49.9741 61.8198 46.0684 69.1043 39.5933L72.5362 36.5771L76.1552 39.757C83.3889 46.1168 92.5841 49.9612 101.96 50.7902V72.5487C101.96 88.7799 88.6959 101.984 72.4655 101.984ZM64.8482 108.96C67.1921 109.507 69.9649 109.797 72.6608 109.797C75.3571 109.797 77.7397 109.507 80.4743 108.96V124.09C76.5677 128.608 68.7547 128.613 64.8482 124.09V108.96ZM31.2521 192.201V176.495C31.2521 174.338 29.5028 172.588 27.3456 172.588C25.1884 172.588 23.4391 174.338 23.4391 176.495V192.201H7.81303V167.277C7.81303 145.812 25.3385 129.306 45.6918 129.306H58.8321C58.8802 129.306 58.9267 129.352 58.9743 129.351C66.3155 137.232 78.7671 137.259 86.1473 129.338C86.1949 129.339 86.2414 129.306 86.2895 129.306H93.9029C92.2809 134.385 91.4043 139.978 91.4043 145.652C91.4043 165.347 101.943 182.678 117.677 192.201H31.2521V192.201ZM145.714 192.201C120.076 192.201 99.2173 171.342 99.2173 145.704C99.2173 120.066 120.076 99.2068 145.714 99.2068C171.352 99.2068 192.211 120.066 192.211 145.704C192.211 171.342 171.353 192.201 145.714 192.201Z" fill="white"/>
</svg>
