<svg width="80" height="80" viewBox="0 0 80 80" fill="none" xmlns="http://www.w3.org/2000/svg">
<path d="M75.3083 8.89573C67.6972 9.32767 52.5694 10.8999 43.2306 16.6166C42.5861 17.011 42.2208 17.7124 42.2208 18.4457V68.9832C42.2208 70.5874 43.975 71.6013 45.4542 70.8568C55.0625 66.0207 68.9583 64.7013 75.8292 64.3402C78.175 64.2166 79.9986 62.336 79.9986 60.0818V13.1596C80 10.6999 77.8667 8.75128 75.3083 8.89573ZM36.7681 16.6166C27.4306 10.8999 12.3028 9.32906 4.69167 8.89573C2.13333 8.75128 0 10.6999 0 13.1596V60.0832C0 62.3388 1.82361 64.2193 4.16944 64.3416C11.0431 64.7027 24.9458 66.0235 34.5542 70.8624C36.0292 71.6054 37.7778 70.5929 37.7778 68.9929V18.4207C37.7778 17.686 37.4139 17.0124 36.7681 16.6166Z" fill="black"/>
</svg>
