<svg width="130" height="130" viewBox="0 0 130 130" fill="none" xmlns="http://www.w3.org/2000/svg">
<g clip-path="url(#clip0_1_742)">
<path d="M127.461 26.7484C128.863 26.7484 130 25.6114 130 24.2094V14.0117C130 12.6094 128.863 11.4727 127.461 11.4727H2.53906C1.13674 11.4727 0 12.6094 0 14.0117V24.2094C0 25.6114 1.13674 26.7484 2.53906 26.7484H10.1976V67.8805C5.8048 69.0116 2.54947 73.0063 2.54947 77.7473C2.54947 82.4882 5.8048 86.4829 10.1976 87.6141V98.153H10.1562C4.55609 98.153 0 102.709 0 108.309V115.989C0 117.391 1.13674 118.528 2.53906 118.528H127.461C128.863 118.528 130 117.391 130 115.989V108.309C130 102.709 125.444 98.153 119.844 98.153H119.802V26.7484H127.461ZM5.07812 16.5508H124.922V21.6703C119.098 21.6703 15.6536 21.6703 5.07812 21.6703V16.5508ZM99.4172 72.6382C102.235 72.6382 104.527 74.9299 104.527 77.7473C104.527 80.5646 102.235 82.8564 99.4172 82.8564C96.5999 82.8564 94.3081 80.5646 94.3081 77.7473C94.3081 74.9299 96.5999 72.6382 99.4172 72.6382ZM96.8782 67.8805C94.869 68.3977 93.0998 69.5159 91.7691 71.0289C90.4384 69.5159 88.6689 68.3977 86.6597 67.8805V26.7484H96.8782V67.8805ZM38.2309 72.6382C41.0483 72.6382 43.3403 74.9299 43.3403 77.7473C43.3403 80.5646 41.0483 82.8564 38.2309 82.8564C35.4136 82.8564 33.1218 80.5646 33.1218 77.7473C33.1218 74.9299 35.4138 72.6382 38.2309 72.6382ZM40.77 67.8805V26.7484H50.9884V67.8805C48.9793 68.3977 47.2101 69.5159 45.8793 71.0289C44.5486 69.5159 42.7794 68.3977 40.77 67.8805ZM53.5275 72.6382C56.3448 72.6382 58.6366 74.9299 58.6366 77.7473C58.6366 80.5646 56.3448 82.8564 53.5275 82.8564C50.7102 82.8564 48.4184 80.5646 48.4184 77.7473C48.4184 74.9299 50.7104 72.6382 53.5275 72.6382ZM56.0666 67.8805V26.7484H66.285V67.8805C64.2756 68.3977 62.5064 69.5159 61.1757 71.0289C59.8452 69.5159 58.076 68.3977 56.0666 67.8805ZM68.8241 72.6382C71.6414 72.6382 73.9332 74.9299 73.9332 77.7473C73.9332 80.5646 71.6414 82.8564 68.8241 82.8564C66.0067 82.8564 63.7147 80.5646 63.7147 77.7473C63.7147 74.9299 66.007 72.6382 68.8241 72.6382ZM71.3631 67.8805V26.7484H81.5813V67.8805C79.5722 68.3977 77.803 69.5159 76.4723 71.0289C75.1418 69.5159 73.3726 68.3977 71.3631 67.8805ZM84.1207 72.6382C86.938 72.6382 89.23 74.9299 89.23 77.7473C89.23 80.5646 86.938 82.8564 84.1207 82.8564C81.3033 82.8564 79.0116 80.5646 79.0116 77.7473C79.0116 74.9299 81.3033 72.6382 84.1207 72.6382ZM23.3221 26.7484L15.2758 53.0935V26.7484H23.3221ZM7.6276 77.7473C7.6276 74.9327 9.91504 72.643 12.7286 72.6384C15.7115 72.6694 17.8461 75.0523 17.8461 77.7473C17.8461 80.5646 15.554 82.8564 12.7367 82.8564C9.91936 82.8564 7.6276 80.5646 7.6276 77.7473ZM124.922 108.309V113.45H5.07812V108.309C5.07812 105.509 7.35617 103.231 10.1562 103.231H119.844C122.644 103.231 124.922 105.509 124.922 108.309ZM114.724 98.153H15.2758V87.6141C19.6686 86.4829 22.9242 82.488 22.9242 77.7473C22.9242 73.2722 20.022 69.4643 16.0019 68.0998L28.6315 26.7482H35.6919V67.8802C31.299 69.0114 28.0437 73.0061 28.0437 77.747C28.0437 83.3642 32.6138 87.9342 38.2309 87.9342C41.2758 87.9342 44.0108 86.5898 45.8793 84.4654C49.9441 89.087 57.105 89.0938 61.1757 84.4654C65.2488 89.0964 72.4098 89.0847 76.4723 84.4654C80.5452 89.0964 87.7063 89.0844 91.7688 84.4654C93.6371 86.5898 96.3724 87.9342 99.417 87.9342C105.034 87.9342 109.604 83.3642 109.604 77.747C109.604 73.0061 106.349 69.0111 101.956 67.8802V26.7484H114.724V98.153H114.724Z" fill="black"/>
</g>
<defs>
<clipPath id="clip0_1_742">
<rect width="130" height="130" fill="white"/>
</clipPath>
</defs>
</svg>
