<svg width="50" height="51" viewBox="0 0 50 51" fill="none" xmlns="http://www.w3.org/2000/svg">
<path d="M24.8207 0.00138855C21.0215 0.0777092 17.7864 2.63698 16.6009 6.12658C16.6052 6.11375 16.6081 6.10064 16.6124 6.08778C15.9794 5.83796 15.3013 5.69832 14.6041 5.69832H5.69818V14.6044C5.69818 15.3041 5.83873 15.9848 6.09056 16.6198C6.09489 16.6184 6.09923 16.6173 6.10356 16.6158C4.77258 17.0746 3.54552 17.8358 2.54684 18.8538C0.859955 20.5707 -0.0436875 22.8116 0.00162501 25.1701C0.0759009 28.9965 2.61685 32.2517 6.07452 33.4218C5.83298 34.0456 5.69818 34.712 5.69818 35.3966V44.3024H14.6041C15.2854 44.3024 15.949 44.1689 16.57 43.9293C16.5664 43.9185 16.5639 43.9069 16.5603 43.896C16.9891 45.2015 17.7188 46.3981 18.7184 47.3958C20.393 49.0764 22.6251 50.0015 24.9984 50.0015C25.0588 50.0015 25.1189 49.9986 25.1791 49.9986C28.9644 49.9245 32.1919 47.3845 33.389 43.9134C34.0218 44.1631 34.6994 44.3024 35.3963 44.3024H44.3022V35.3966C44.3022 34.697 44.1617 34.0168 43.91 33.3818C45.2357 32.9219 46.4574 32.161 47.4532 31.1459C49.1399 29.4291 50.0435 27.1882 49.9984 24.8297C49.9239 20.9975 47.372 17.7368 43.9046 16.5734C43.9114 16.5757 43.9187 16.5772 43.9255 16.5796C44.1672 15.9558 44.3022 15.2892 44.3022 14.6044V5.69832H35.3963C34.7149 5.69832 34.0518 5.83187 33.4307 6.07101C32.9999 4.77837 32.2738 3.59439 31.2845 2.60685C29.6048 0.924088 27.3815 -0.000125885 24.9915 -0.000160217C24.9346 -0.000160217 24.8778 0.000331879 24.8207 0.00138855ZM3.01068 25.1158C2.98341 23.5738 3.58286 22.0977 4.69429 20.9652C5.842 19.7966 7.42928 19.1279 9.05268 19.1279H14.5827C17.0889 19.1279 19.1281 17.0888 19.1281 14.5827V9.05265C19.1281 5.78458 21.7094 3.07682 24.881 3.01344H24.9984C26.5707 3.01344 28.0436 3.62199 29.152 4.73644C30.2635 5.84174 30.875 7.31467 30.875 8.88708V15.2123H33.8869V9.22672C34.3168 8.89445 34.8457 8.7102 35.3963 8.7102H41.2901V14.6044C41.2901 15.1553 41.1057 15.6848 40.7731 16.1149H41.1145C41.135 16.1149 41.1548 16.1172 41.175 16.1173C41.1554 16.1173 41.1357 16.1159 41.1158 16.1159H34.7907H33.8869H30.875H29.9714H26.6582C20.8449 16.1159 16.116 20.8449 16.116 26.658V29.9712H19.1281V26.658C19.1281 22.5046 22.5045 19.1279 26.6582 19.1279H29.9714H30.875H33.8869H34.7907H41.1158C44.2906 19.1279 46.926 21.7122 46.9894 24.8868C47.0164 26.4291 46.42 27.902 45.3055 29.0346C44.158 30.2032 42.5707 30.8748 40.9502 30.8748H35.4171C32.9112 30.8748 30.875 32.9109 30.875 35.417V40.947C30.875 44.2151 28.2937 46.9232 25.1189 46.9863L24.9984 46.9895C23.4293 46.9895 21.9563 46.3775 20.8478 45.2663C19.7364 44.158 19.1281 42.6852 19.1281 41.1157V34.7905H16.116V41.1157C16.116 41.1419 16.1177 41.168 16.1179 41.1938C16.1176 41.1674 16.1147 41.1416 16.1147 41.1148V40.773C15.6847 41.1057 15.155 41.2904 14.6041 41.2904H8.71008V35.3966C8.71008 34.846 8.8945 34.3168 9.22677 33.8869H15.2124H16.116H19.1281H20.0317H23.3448C29.1551 33.8869 33.8869 29.158 33.8869 23.3448V20.0315H30.875V23.3448C30.875 27.4954 27.4954 30.8748 23.3448 30.8748H20.0317H19.1281H16.116H15.2124H8.88707C5.70938 30.8748 3.07378 28.2906 3.01068 25.1158ZM9.05144 16.1149H9.22695C8.89451 15.6848 8.71008 15.1557 8.71008 14.6044V8.7102H14.6041C15.1553 8.7102 15.6847 8.89445 16.1147 9.22707V9.053C16.1147 9.02823 16.1174 9.00414 16.1178 8.97937C16.1174 9.00396 16.116 9.02805 16.116 9.05265V14.5827C16.116 15.4292 15.4292 16.1159 14.5827 16.1159H9.05268C9.0314 16.1159 9.01015 16.1173 8.98883 16.1176C9.00973 16.1172 9.03034 16.1149 9.05144 16.1149ZM33.8869 40.7745V35.417C33.8869 34.5736 34.5737 33.8869 35.4171 33.8869H40.7738C41.106 34.3168 41.2901 34.8459 41.2901 35.3966V41.2904H35.3963C34.8454 41.2904 34.3167 41.1064 33.8869 40.7745Z" fill="white"/>
</svg>
