<svg width="84" height="84" viewBox="0 0 84 84" fill="none" xmlns="http://www.w3.org/2000/svg">
<path d="M68.25 34.125C71.0337 34.1215 73.7024 33.0142 75.6708 31.0458C77.6392 29.0774 78.7465 26.4087 78.75 23.625V15.75H70.875C68.1874 15.754 65.6047 16.7938 63.6641 18.6532C62.3042 16.1858 60.3078 14.128 57.8827 12.6941C55.4575 11.2601 52.6924 10.5025 49.875 10.5H42V18.375C42.0049 22.5507 43.6658 26.5539 46.6184 29.5066C49.5711 32.4592 53.5743 34.1201 57.75 34.125H60.375V68.25H28.875V55.125H31.5C34.2837 55.1215 36.9524 54.0142 38.9208 52.0458C40.8892 50.0774 41.9965 47.4087 42 44.625V36.75H34.125C31.4374 36.754 28.8547 37.7938 26.9141 39.6532C25.5543 37.1858 23.5578 35.128 21.1327 33.6941C18.7075 32.2601 15.9424 31.5025 13.125 31.5H5.25V39.375C5.25486 43.5507 6.91579 47.5539 9.86844 50.5066C12.8211 53.4592 16.8243 55.1201 21 55.125H23.625V68.25H5.25V73.5H78.75V68.25H65.625V34.125H68.25ZM65.625 26.25C65.6264 24.858 66.18 23.5235 67.1642 22.5392C68.1485 21.555 69.483 21.0014 70.875 21H73.5V23.625C73.4986 25.017 72.945 26.3515 71.9608 27.3358C70.9765 28.32 69.642 28.8736 68.25 28.875H65.625V26.25ZM28.875 47.25C28.8764 45.858 29.43 44.5235 30.4142 43.5392C31.3985 42.555 32.733 42.0014 34.125 42H36.75V44.625C36.7486 46.017 36.195 47.3515 35.2108 48.3358C34.2265 49.32 32.892 49.8736 31.5 49.875H28.875V47.25ZM23.625 49.875H21C18.2163 49.8715 15.5476 48.7642 13.5792 46.7958C11.6108 44.8274 10.5035 42.1587 10.5 39.375V36.75H13.125C15.9087 36.7535 18.5774 37.8608 20.5458 39.8292C22.5142 41.7976 23.6215 44.4663 23.625 47.25V49.875ZM60.375 28.875H57.75C54.9663 28.8715 52.2976 27.7642 50.3292 25.7958C48.3608 23.8274 47.2535 21.1587 47.25 18.375V15.75H49.875C52.6587 15.7535 55.3274 16.8608 57.2958 18.8292C59.2642 20.7976 60.3715 23.4663 60.375 26.25V28.875Z" fill="white"/>
</svg>
